<?xml version="1.0" encoding="utf-8"?>
<!-- Generator: Adobe Illustrator 23.0.1, SVG Export Plug-In . SVG Version: 6.00 Build 0)  -->
<svg version="1.1" id="Layer_1" xmlns="http://www.w3.org/2000/svg" xmlns:xlink="http://www.w3.org/1999/xlink" x="0px" y="0px"
	 viewBox="0 0 171.3478 91.0157" style="enable-background:new 0 0 171.3478 91.0157;" xml:space="preserve">
<style type="text/css">
	.st0{fill:#FFFFFF;}
</style>
<g id="XMLID_4374_">
	<g id="XMLID_4404_">
		<g id="XMLID_4416_">
			<path id="XMLID_4427_" class="st0" d="M92.5251,46.537c-0.8246-0.7287-1.8746-1.0829-3.2097-1.0829h-5.4806v12.5062h1.8888
				v-4.5632h3.5918c1.343,0,2.3936-0.3608,3.2117-1.1027c0.8022-0.7258,1.209-1.6909,1.209-2.8688
				C93.7361,48.2549,93.3301,47.2843,92.5251,46.537z M89.3154,51.652h-3.5918v-4.4529h3.5918c1.549,0,2.5499,0.8739,2.5499,2.2265
				C91.8653,50.7781,90.8644,51.652,89.3154,51.652z"/>
			<path id="XMLID_4426_" class="st0" d="M102.968,52.4618c0,1.1877-0.3129,2.1448-0.9297,2.8449
				c-0.6236,0.708-1.418,1.0522-2.4287,1.0522c-1.0349,0-1.8411-0.3442-2.4646-1.0522c-0.6288-0.7137-0.9476-1.6709-0.9476-2.8449
				v-7.0077h-1.8887v7.0077c0,1.6943,0.4925,3.0839,1.461,4.1269c0.9532,1.0651,2.2451,1.6051,3.8399,1.6051
				c1.5828,0,2.8687-0.54,3.8205-1.6036c0.9466-1.0394,1.4266-2.4285,1.4266-4.1284v-7.0077h-1.8887V52.4618z"/>
			<polygon id="XMLID_4425_" class="st0" points="115.0588,54.6938 107.5364,45.4541 105.9684,45.4541 105.9684,57.9603 
				107.8572,57.9603 107.8572,48.8226 115.3804,57.9603 116.9477,57.9603 116.9477,45.4541 115.0588,45.4541 			"/>
			<path id="XMLID_4424_" class="st0" d="M127.0625,45.4541h-6.3981v1.745h4.5092v6.1429c0,0.9064-0.2569,1.637-0.7853,2.2338
				c-0.5095,0.5753-1.169,0.855-2.016,0.855c-1.5471,0-2.5951-1.0043-2.8031-2.6864l-0.032-0.2576l-1.8124,0.4109l0.0317,0.2151
				c0.365,2.4791,2.177,4.081,4.6158,4.081c1.3897,0,2.5346-0.4595,3.4049-1.3676c0.8529-0.9096,1.2853-2.0818,1.2853-3.4842
				V45.4541z"/>
			<path id="XMLID_4421_" class="st0" d="M132.227,45.4541l-5.5998,12.5062h2.0423l1.3474-3.0541h6.036l1.3474,3.0541h2.0423
				l-5.5998-12.5062H132.227z M135.2898,53.1612h-4.5086l2.262-5.1284L135.2898,53.1612z"/>
			<path id="XMLID_4417_" class="st0" d="M147.9719,51.5441c0.8878-0.4607,1.4937-1.5003,1.4937-2.6934
				c0-2.0634-1.4955-3.3966-3.8098-3.3966h-5.7681v12.5062h6.0016c2.4498,0,3.9716-1.3428,3.9716-3.5044
				C149.8609,53.07,149.127,51.9771,147.9719,51.5441z M145.6379,50.8436h-3.8613v-3.6983h3.7535
				c1.3068,0,2.1186,0.681,2.1186,1.7773C147.6487,50.0895,146.8594,50.8436,145.6379,50.8436z M141.7766,52.4629h4.0049
				c1.3197,0,2.1726,0.7329,2.1726,1.8673c0,1.1959-0.8393,1.9389-2.1905,1.9389h-3.987V52.4629z"/>
		</g>
		<g id="XMLID_4405_">
			<path id="XMLID_4415_" class="st0" d="M94.0317,67.1565c-0.5935,1.8488-2.1033,2.9091-4.142,2.9091
				c-1.281,0-2.3724-0.4593-3.2457-1.3669c-0.8978-0.915-1.3342-2.0013-1.3342-3.3209c0-1.3132,0.4489-2.4365,1.3358-3.3404
				c0.8602-0.894,1.9516-1.3473,3.2441-1.3473c2.0352,0,3.5834,1.0798,4.1412,2.8886l0.068,0.2205l1.8176-0.5262l-0.0717-0.229
				c-0.3912-1.2477-1.1276-2.2674-2.1928-3.0334c-1.0769-0.7428-2.3428-1.1194-3.7623-1.1194c-1.8051,0-3.354,0.6336-4.6033,1.8832
				c-1.2497,1.2495-1.8834,2.7984-1.8834,4.6034s0.6337,3.3538,1.8834,4.6035c1.2495,1.2496,2.7983,1.8832,4.6033,1.8832
				c1.4474,0,2.7145-0.3836,3.7661-1.14c1.0645-0.7656,1.8012-1.8104,2.1897-3.1054l0.0716-0.2386l-1.819-0.4308L94.0317,67.1565z"
				/>
			<path id="XMLID_4412_" class="st0" d="M102.7532,58.8912c-1.7932,0-3.3361,0.6336-4.5854,1.8832
				c-1.2497,1.2495-1.8834,2.7984-1.8834,4.6034s0.6337,3.3538,1.8834,4.6035c1.2495,1.2496,2.7923,1.8832,4.5854,1.8832
				c1.793,0,3.3359-0.6336,4.5854-1.8832c1.2377-1.2378,1.8654-2.7867,1.8654-4.6035c0-1.817-0.6277-3.3657-1.8654-4.6034
				C106.0892,59.5248,104.5464,58.8912,102.7532,58.8912z M105.9795,68.7003c-0.8723,0.9066-1.9277,1.3472-3.2263,1.3472
				c-1.2925,0-2.3841-0.4532-3.2459-1.3487c-0.8733-0.8906-1.3161-2.008-1.3161-3.321c0-1.3078,0.4433-2.4317,1.3177-3.3404
				c0.8604-0.894,1.9519-1.3473,3.2443-1.3473c1.2985,0,2.3538,0.4407,3.2263,1.3473c0.8745,0.9087,1.3177,2.0326,1.3177,3.3404
				c0,1.313-0.4428,2.4304-1.3161,3.321L105.9795,68.7003z"/>
			<polygon id="XMLID_4411_" class="st0" points="111.7555,59.1247 109.8666,59.1247 109.8666,71.631 118.6542,71.631 
				118.6542,69.868 111.7555,69.868 			"/>
			<polygon id="XMLID_4410_" class="st0" points="121.2055,59.1247 119.3166,59.1247 119.3166,71.631 128.1042,71.631 
				128.1042,69.868 121.2055,69.868 			"/>
			<polygon id="XMLID_4409_" class="st0" points="130.6556,66.2234 137.4824,66.2234 137.4824,64.4783 130.6556,64.4783 
				130.6556,60.8697 138.0034,60.8697 138.0034,59.1247 128.7668,59.1247 128.7668,71.631 138.0213,71.631 138.0213,69.868 
				130.6556,69.868 			"/>
			<path id="XMLID_4408_" class="st0" d="M151.0938,64.5502h-7.1102v1.763h5.2831c-0.172,1.0709-0.6199,1.9333-1.3642,2.63
				c-0.7954,0.7448-1.8053,1.1224-3.0014,1.1224c-1.2876,0-2.3917-0.4598-3.2833-1.3685c-0.9087-0.9088-1.3506-1.9945-1.3506-3.3193
				c0-1.3078,0.4433-2.4317,1.3177-3.3404c0.8604-0.894,1.952-1.3473,3.2443-1.3473c1.9133,0,3.4017,0.8787,4.1911,2.4742
				l0.0922,0.1864l1.702-0.5992l-0.0901-0.2269c-0.889-2.2411-3.148-3.6334-5.8952-3.6334c-1.7932,0-3.336,0.6336-4.5854,1.8832
				c-1.2497,1.2495-1.8834,2.7984-1.8834,4.6034s0.6337,3.3538,1.8834,4.6035c1.2495,1.2496,2.8045,1.8832,4.6213,1.8832
				c1.8314,0,3.3518-0.6294,4.5174-1.8692c1.1637-1.219,1.7537-2.7664,1.7537-4.5994c0-0.2583,0-0.4623-0.0193-0.6368
				L151.0938,64.5502z"/>
			<polygon id="XMLID_4407_" class="st0" points="153.6877,66.2234 160.5145,66.2234 160.5145,64.4783 153.6877,64.4783 
				153.6877,60.8697 161.0355,60.8697 161.0355,59.1247 151.7989,59.1247 151.7989,71.631 161.0534,71.631 161.0534,69.868 
				153.6877,69.868 			"/>
			<path id="XMLID_4406_" class="st0" d="M168.1286,64.6996l-2.63-0.5943c-1.1386-0.2209-1.6243-0.6893-1.6243-1.566
				c0-1.1599,1.0029-1.9391,2.4959-1.9391c1.5347,0,2.644,0.842,2.8952,2.1974l0.0445,0.2405l1.8818-0.4287l-0.0463-0.2251
				c-0.4425-2.1547-2.2585-3.4931-4.7393-3.4931c-1.3296,0-2.419,0.3381-3.2361,1.0032c-0.8455,0.6725-1.2743,1.5745-1.2743,2.6809
				c0,1.7327,1.0348,2.8433,3.0769,3.3013l2.7123,0.5929c1.3265,0.2928,1.7742,0.711,1.7742,1.6571
				c0,1.2403-1.0321,2.0108-2.6936,2.0108c-1.8129,0-3.0426-0.9135-3.2895-2.4435l-0.039-0.2418l-1.9446,0.3984l0.0279,0.2163
				c0.1534,1.1887,0.7189,2.1262,1.6766,2.7834c0.935,0.673,2.0932,1.0143,3.4429,1.0143c1.4076,0,2.551-0.3437,3.3983-1.0216
				c0.8691-0.6951,1.3097-1.6332,1.3097-2.7883C171.3478,66.2821,170.2638,65.1531,168.1286,64.6996z"/>
		</g>
	</g>
	<g id="XMLID_4375_">
		<path id="XMLID_4393_" class="st0" d="M62.5651,48.0827l-0.0338,0.0193v-5.4462l-4.6406,2.6764l-0.0257,0.0161v-5.4735
			l-4.668,2.6941v-5.3947l-6.5177,3.7592v14.5113l-0.0096,0.0049L33.5972,62.992l-13.0805-7.5473V40.9398l-6.5178-3.7591v5.3882
			l-0.0306-0.0178L9.331,39.8748v5.4735l-0.0371-0.0209l-4.6292-2.6716v5.4462l-0.0435-0.0257L0,45.4112v26.2077L33.5956,91.014
			l0.0016,0.0017L67.196,71.6189V45.4112L62.5651,48.0827z M57.865,47.5075l0.0257-0.0145v-0.0017l2.7763-1.6v20.9034
			L34.5301,81.8522v-4.2989L57.865,64.0522V47.5075z M53.197,44.7264l0.0193-0.0113l2.7844-1.6049v19.8625L34.5301,75.3926v-4.3345
			L53.197,60.3092V44.7264z M48.5371,56.5323l0.0081-0.0048V42.0162l2.7875-1.6081v18.8183l-16.8026,9.6742V64.613L48.5371,56.5323z
			 M32.6658,88.3184l-0.008-0.0049L1.8643,70.5474V48.6451l2.8004,1.6145v17.6179l27.9931,16.1274l0.008,0.0049V88.3184z
			 M32.6658,81.8522l-0.008-0.0048L6.529,66.7947V45.8913l2.802,1.6162v16.5464l23.3268,13.4945l0.008,0.0049V81.8522z
			 M32.6658,75.3926l-0.008-0.0049l-21.4625-12.415V43.1102l2.8036,1.6162v15.5828l18.6589,10.7441l0.008,0.0048V75.3926z
			 M32.6658,68.9006l-0.008-0.0048l-16.7946-9.6694V40.4081l2.7876,1.6081v14.5113l14.007,8.0806l0.008,0.0049V68.9006z
			 M34.5301,88.3184v-4.3086l28.0012-16.1323V50.2596l0.0338-0.0194l2.7666-1.5951v21.9023L34.5301,88.3184z"/>
		<polygon id="XMLID_4376_" class="st0" points="20.5102,22.4019 20.5167,22.3987 23.3138,20.7551 23.3316,20.7455 23.3316,52.7152 
			33.5972,58.6431 43.8644,52.7152 43.8644,20.7455 43.8789,20.7535 46.6793,22.3987 46.6841,22.4019 46.6841,38.7807 
			48.5452,37.706 48.5452,21.3352 41.9985,17.4858 41.9985,51.6324 34.5317,55.9442 34.5317,55.9458 34.5301,55.9458 
			34.5301,51.576 34.5317,51.5744 39.198,48.8803 39.198,15.8439 37.337,14.7498 37.337,14.7482 37.3322,14.7466 37.3322,47.7991 
			34.5317,49.4152 34.5317,49.4169 34.5301,49.4169 34.5301,0.5479 33.5972,0 32.6658,0.5479 32.6658,49.4169 32.6626,49.4152 
			29.8638,47.7991 29.8638,14.7466 29.8574,14.7498 27.9979,15.8423 27.9979,48.8803 32.6626,51.5744 32.6658,51.576 
			32.6658,55.9458 32.6626,55.9442 25.1974,51.6324 25.1974,17.4858 25.183,17.4955 18.6508,21.3352 18.6508,37.6415 
			20.5102,38.7162 		"/>
	</g>
</g>
</svg>
