<svg id="svg" version="1.1" xmlns="http://www.w3.org/2000/svg" xmlns:xlink="http://www.w3.org/1999/xlink" width="400" height="192.54486884491484" viewBox="0, 0, 400,192.54486884491484"><g id="svgg"><path id="path0" d="M72.576 0.614 L 71.613 1.197 71.609 51.035 C 71.608 78.447,71.578 100.874,71.543 100.874 C 71.508 100.874,70.203 100.138,68.643 99.237 L 65.808 97.600 65.761 61.317 C 65.736 41.362,65.675 25.035,65.625 25.035 C 65.576 25.035,64.624 25.576,63.509 26.238 L 61.481 27.442 61.527 63.812 L 61.574 100.182 66.584 103.059 L 71.595 105.936 71.600 110.595 L 71.606 115.254 70.532 114.645 C 69.942 114.310,66.299 112.214,62.436 109.986 L 55.414 105.936 55.411 68.507 C 55.409 44.763,55.343 31.101,55.231 31.140 C 55.134 31.173,51.866 33.065,47.968 35.343 L 40.881 39.485 40.873 57.452 L 40.865 75.419 42.984 76.642 C 44.149 77.314,45.143 77.865,45.193 77.865 C 45.242 77.865,45.283 69.792,45.283 59.926 L 45.283 41.987 47.953 40.407 C 49.422 39.539,50.747 38.780,50.899 38.722 C 51.142 38.629,51.174 42.645,51.175 73.565 L 51.177 108.514 62.348 114.956 C 68.493 118.500,73.656 121.399,73.822 121.399 C 73.988 121.399,79.149 118.500,85.290 114.957 L 96.457 108.516 96.457 73.510 L 96.457 38.505 99.493 40.283 L 102.530 42.062 102.531 59.963 C 102.531 69.809,102.583 77.865,102.646 77.865 C 102.708 77.865,103.661 77.351,104.762 76.723 L 106.765 75.581 106.759 57.533 L 106.752 39.485 99.670 35.343 C 95.775 33.065,92.506 31.173,92.405 31.140 C 92.285 31.099,92.222 43.833,92.222 68.507 L 92.221 105.936 84.720 110.255 C 80.595 112.630,76.951 114.730,76.622 114.921 L 76.024 115.269 76.032 110.603 L 76.039 105.936 81.048 103.067 L 86.056 100.198 86.056 63.784 L 86.056 27.371 84.123 26.211 C 83.060 25.573,82.129 25.048,82.053 25.043 C 81.977 25.038,81.894 41.362,81.869 61.319 L 81.822 97.603 79.005 99.238 C 77.455 100.138,76.151 100.874,76.106 100.874 C 76.061 100.874,76.024 78.444,76.024 51.028 L 76.024 1.182 74.995 0.591 C 73.762 -0.117,73.787 -0.118,72.576 0.614 " stroke="none" fill="#dc3c2c" fill-rule="evenodd"></path><path id="path1" d="M182.789 63.691 L 182.789 78.049 185.090 78.049 L 187.391 78.049 187.391 72.895 L 187.391 67.740 191.884 67.740 C 200.989 67.740,204.644 65.622,205.457 59.873 C 205.662 58.419,205.305 54.968,204.920 54.679 C 204.846 54.624,204.621 54.248,204.420 53.843 C 203.875 52.746,202.169 51.162,200.819 50.499 C 198.533 49.378,198.116 49.333,190.079 49.333 L 182.789 49.333 182.789 63.691 M207.315 58.767 C 207.387 69.395,207.412 69.606,208.876 72.398 C 212.887 80.043,224.333 80.763,229.208 73.677 C 229.848 72.747,230.685 71.238,230.562 71.238 C 230.519 71.238,230.641 70.782,230.833 70.225 C 231.465 68.388,231.569 66.639,231.569 57.879 L 231.569 49.333 229.268 49.333 L 226.967 49.333 226.967 58.051 C 226.967 67.482,226.920 68.065,226.000 69.930 C 223.254 75.498,215.685 75.589,212.906 70.087 C 211.935 68.166,211.875 67.461,211.874 57.938 L 211.873 49.333 209.561 49.333 L 207.250 49.333 207.315 58.767 M235.251 63.691 L 235.251 78.049 237.550 78.049 L 239.850 78.049 239.897 67.808 L 239.945 57.568 243.534 61.941 C 245.509 64.345,248.520 68.022,250.227 70.110 C 251.933 72.198,253.653 74.280,254.048 74.735 C 254.443 75.191,254.869 75.690,254.995 75.845 C 255.121 76.000,255.583 76.559,256.023 77.088 L 256.822 78.049 258.644 78.049 L 260.465 78.049 260.513 63.691 L 260.561 49.333 258.260 49.333 L 255.960 49.333 256.010 55.913 C 256.037 59.533,256.037 64.192,256.010 66.268 L 255.960 70.041 254.040 67.648 C 252.985 66.332,251.825 64.919,251.463 64.509 C 251.101 64.098,250.612 63.519,250.375 63.220 C 248.613 61.000,243.629 54.864,243.125 54.295 C 242.987 54.138,242.025 52.958,240.988 51.672 L 239.102 49.333 237.176 49.333 L 235.251 49.333 235.251 63.691 M268.569 51.450 L 268.569 53.566 273.734 53.566 L 278.899 53.566 278.834 61.344 C 278.757 70.486,278.610 71.211,276.488 72.891 C 272.462 76.080,266.518 73.352,266.325 68.228 C 266.296 67.445,266.356 67.446,263.366 68.154 C 262.072 68.460,261.770 68.594,261.844 68.829 C 261.894 68.989,262.018 69.557,262.119 70.090 C 263.892 79.484,276.913 81.737,281.881 73.509 C 283.254 71.235,283.295 70.826,283.295 59.428 L 283.295 49.333 275.932 49.333 L 268.569 49.333 268.569 51.450 M295.670 50.207 C 295.443 50.688,295.258 51.138,295.258 51.208 C 295.259 51.278,294.841 52.189,294.329 53.233 C 293.818 54.277,293.369 55.266,293.332 55.430 C 293.295 55.595,292.927 56.419,292.514 57.262 C 292.101 58.105,291.763 58.856,291.763 58.931 C 291.763 59.006,291.390 59.859,290.934 60.828 C 290.479 61.796,290.106 62.625,290.106 62.669 C 290.106 62.713,289.775 63.453,289.370 64.313 C 288.965 65.173,288.633 65.919,288.633 65.971 C 288.633 66.023,288.219 66.943,287.713 68.017 C 287.207 69.090,286.792 70.009,286.792 70.058 C 286.792 70.108,286.535 70.704,286.219 71.384 C 285.586 72.748,285.127 73.771,284.218 75.840 C 283.885 76.599,283.541 77.299,283.453 77.395 C 282.951 77.950,283.298 78.049,285.734 78.046 L 288.173 78.043 288.974 76.251 C 289.415 75.266,290.099 73.755,290.495 72.895 L 291.214 71.330 298.092 71.282 L 304.970 71.234 305.196 71.834 C 305.500 72.644,305.615 72.910,306.480 74.800 C 306.890 75.696,307.225 76.500,307.225 76.587 C 307.225 76.674,307.370 77.036,307.547 77.392 L 307.869 78.040 310.308 78.044 C 311.650 78.047,312.747 78.008,312.747 77.958 C 312.747 77.820,311.683 75.378,310.884 73.681 C 310.491 72.848,310.170 72.047,310.170 71.901 C 310.170 71.756,310.108 71.609,310.032 71.575 C 309.867 71.502,308.664 68.851,308.648 68.523 C 308.641 68.396,308.567 68.293,308.483 68.293 C 308.399 68.293,308.330 68.189,308.330 68.063 C 308.330 67.936,307.964 67.046,307.515 66.084 C 305.631 62.038,305.200 61.086,305.200 60.964 C 305.200 60.893,304.745 59.899,304.188 58.754 C 303.631 57.609,303.175 56.599,303.175 56.510 C 303.175 56.422,302.855 55.661,302.463 54.820 C 302.071 53.979,301.586 52.918,301.384 52.462 C 301.182 52.006,300.781 51.116,300.493 50.483 L 299.969 49.333 298.026 49.333 L 296.083 49.333 295.670 50.207 M313.300 63.691 L 313.300 78.049 321.006 78.049 C 329.485 78.049,330.079 77.993,332.026 77.014 C 337.196 74.415,337.816 66.544,333.070 63.762 C 332.123 63.207,332.128 63.220,332.706 62.914 C 335.826 61.266,336.251 54.961,333.447 51.932 C 331.221 49.528,330.326 49.343,320.893 49.337 L 313.300 49.333 313.300 63.691 M328.795 53.964 C 331.170 55.078,331.711 58.225,329.867 60.201 C 328.749 61.398,328.284 61.482,322.776 61.482 L 317.902 61.482 317.902 57.417 L 317.902 53.351 322.826 53.413 C 327.713 53.474,327.757 53.478,328.795 53.964 M197.055 53.771 C 200.453 54.703,201.985 57.709,200.553 60.635 C 199.440 62.907,198.119 63.323,191.998 63.323 L 187.391 63.323 187.391 58.445 L 187.391 53.566 191.855 53.568 C 194.522 53.568,196.615 53.650,197.055 53.771 M298.320 56.261 C 298.387 56.529,298.747 57.378,299.118 58.148 C 299.490 58.919,299.904 59.839,300.037 60.193 C 300.171 60.548,300.550 61.423,300.880 62.138 C 301.210 62.854,301.709 64.014,301.988 64.715 C 302.268 65.417,302.617 66.178,302.765 66.406 L 303.034 66.820 298.059 66.820 L 293.084 66.820 293.417 66.130 C 294.063 64.791,294.892 62.944,294.892 62.843 C 294.892 62.787,295.265 61.954,295.720 60.992 C 296.176 60.030,296.549 59.174,296.549 59.089 C 296.549 59.004,296.838 58.330,297.193 57.590 C 297.547 56.851,297.837 56.140,297.837 56.011 C 297.837 55.581,298.196 55.767,298.320 56.261 M329.130 65.980 C 332.576 67.408,332.576 71.830,329.130 73.505 C 328.349 73.884,328.009 73.910,323.102 73.966 L 317.902 74.025 317.902 69.763 L 317.902 65.502 323.102 65.569 C 327.660 65.628,328.404 65.678,329.130 65.980 M30.697 80.049 L 30.649 85.923 25.771 83.099 C 23.088 81.546,20.790 80.271,20.665 80.267 C 20.490 80.260,20.426 81.609,20.389 86.125 L 20.341 91.993 15.462 89.167 C 12.780 87.612,10.523 86.338,10.449 86.336 C 10.374 86.334,10.292 88.980,10.265 92.215 L 10.216 98.098 5.430 95.330 C 2.798 93.808,0.499 92.483,0.322 92.386 C 0.016 92.219,0.000 93.641,0.000 121.095 L 0.000 149.981 36.896 171.275 C 70.910 190.906,73.826 192.552,74.218 192.343 C 75.184 191.829,147.365 150.156,147.493 150.039 C 147.569 149.969,147.610 136.942,147.585 121.091 L 147.538 92.270 142.476 95.185 L 137.414 98.099 137.365 92.197 C 137.327 87.601,137.266 86.315,137.089 86.385 C 136.964 86.434,134.708 87.717,132.075 89.236 L 127.289 91.997 127.241 86.107 C 127.196 80.616,127.171 80.222,126.873 80.306 C 126.697 80.355,124.399 81.644,121.767 83.171 L 116.981 85.946 116.889 80.075 L 116.797 74.205 109.572 78.375 L 102.347 82.546 102.343 98.475 L 102.338 114.404 88.144 122.576 C 75.928 129.610,73.890 130.726,73.518 130.584 C 73.280 130.493,66.833 126.815,59.191 122.411 L 45.297 114.404 45.290 98.472 L 45.283 82.540 38.443 78.592 C 34.681 76.420,31.410 74.538,31.174 74.409 L 30.746 74.174 30.697 80.049 M194.478 81.487 C 188.641 81.985,183.012 87.084,181.768 92.999 C 181.028 96.519,182.161 103.530,183.571 104.157 C 183.647 104.191,183.709 104.325,183.709 104.455 C 183.709 104.932,186.825 107.998,188.253 108.926 C 195.096 113.373,205.234 111.140,208.788 104.403 C 209.442 103.164,210.330 100.904,210.197 100.820 C 210.098 100.758,206.103 99.770,205.949 99.770 C 205.882 99.770,205.726 100.081,205.604 100.460 C 204.096 105.117,198.557 107.947,193.771 106.507 C 193.299 106.365,192.913 106.283,192.913 106.326 C 192.913 106.368,192.512 106.200,192.022 105.952 C 182.130 100.939,185.288 85.931,196.239 85.912 C 200.765 85.904,204.053 88.036,205.458 91.889 C 205.752 92.695,205.925 92.946,206.147 92.882 C 209.235 91.993,210.233 91.612,210.136 91.359 C 210.078 91.208,209.977 90.864,209.911 90.595 C 209.759 89.976,208.387 87.365,208.170 87.283 C 208.081 87.250,208.007 87.121,208.007 86.997 C 208.007 86.873,207.490 86.271,206.857 85.659 C 203.501 82.413,199.486 81.060,194.478 81.487 M224.121 81.567 C 209.450 83.704,206.675 104.443,220.308 110.065 C 232.343 115.028,244.373 103.840,240.283 91.489 C 238.055 84.764,231.175 80.539,224.121 81.567 M323.148 81.541 C 315.000 82.702,309.306 90.768,310.782 99.059 C 312.402 108.157,321.918 113.525,330.766 110.331 C 333.754 109.253,336.174 107.129,338.190 103.814 C 339.125 102.278,339.683 99.917,339.769 97.147 L 339.852 94.432 331.638 94.432 L 323.424 94.432 323.424 96.549 L 323.424 98.665 329.419 98.665 L 335.414 98.665 335.288 99.080 C 334.041 103.186,331.803 105.605,328.448 106.475 C 319.985 108.668,312.768 100.570,315.897 92.392 C 316.896 89.784,319.892 86.821,321.927 86.429 C 322.093 86.397,322.601 86.270,323.056 86.146 C 324.112 85.859,326.961 85.861,328.031 86.150 C 328.484 86.272,329.052 86.408,329.293 86.452 C 330.693 86.708,333.530 88.965,334.144 90.313 C 334.254 90.553,334.403 90.750,334.476 90.750 C 334.548 90.750,334.711 90.999,334.837 91.302 C 334.962 91.606,335.112 91.855,335.168 91.855 C 335.373 91.855,339.031 90.587,339.230 90.447 C 339.378 90.343,338.023 87.838,337.299 86.877 C 334.310 82.908,328.618 80.761,323.148 81.541 M374.873 81.464 C 374.671 81.511,374.053 81.642,373.501 81.754 C 368.430 82.784,365.401 86.994,366.384 91.645 C 367.103 95.043,369.616 96.990,374.505 97.934 C 381.676 99.319,383.119 99.993,383.364 102.073 C 383.735 105.214,381.210 107.109,376.936 106.897 C 373.049 106.703,370.676 104.915,370.080 101.731 L 369.948 101.022 368.913 101.148 C 367.883 101.273,365.366 101.761,365.274 101.853 C 365.155 101.972,365.774 104.427,366.148 105.318 C 366.824 106.928,369.765 109.894,370.687 109.894 C 370.788 109.894,371.316 110.098,371.860 110.347 C 373.961 111.308,377.243 111.551,380.304 110.971 C 390.002 109.133,390.774 96.824,381.316 94.823 C 371.998 92.853,371.040 92.388,371.040 89.830 C 371.040 83.867,382.030 84.535,382.993 90.556 C 383.085 91.136,383.183 91.291,383.411 91.224 C 383.575 91.175,384.579 90.918,385.641 90.652 C 387.954 90.073,387.720 90.294,387.384 89.005 C 386.223 84.546,382.336 81.663,377.212 81.458 C 376.128 81.415,375.076 81.417,374.873 81.464 M38.012 83.351 L 40.773 84.955 40.865 100.924 L 40.957 116.893 56.236 125.707 L 71.514 134.521 71.563 139.071 C 71.602 142.688,71.565 143.603,71.379 143.528 C 71.251 143.477,63.028 138.759,53.106 133.045 L 35.067 122.655 35.020 102.193 C 34.994 90.938,35.036 81.734,35.112 81.739 C 35.188 81.744,36.493 82.469,38.012 83.351 M112.610 102.199 L 112.563 122.669 94.432 133.116 C 84.459 138.861,76.236 143.567,76.159 143.571 C 76.081 143.576,76.040 141.544,76.067 139.054 L 76.116 134.528 91.394 125.718 L 106.673 116.908 106.765 100.943 L 106.857 84.977 109.618 83.363 C 111.137 82.475,112.442 81.744,112.518 81.739 C 112.594 81.734,112.636 90.941,112.610 102.199 M243.855 96.272 C 243.880 104.169,243.942 110.630,243.993 110.630 C 244.045 110.630,248.601 110.630,254.119 110.630 L 264.151 110.630 264.151 108.514 L 264.151 106.397 256.236 106.397 L 248.320 106.397 248.320 94.156 L 248.320 81.914 246.065 81.914 L 243.810 81.914 243.855 96.272 M265.992 96.318 L 265.992 110.723 276.116 110.723 L 286.240 110.723 286.240 108.560 L 286.240 106.397 278.325 106.397 L 270.410 106.397 270.410 94.156 L 270.410 81.914 268.201 81.914 L 265.992 81.914 265.992 96.318 M288.081 96.270 L 288.081 110.625 298.758 110.674 L 309.434 110.723 309.434 108.560 L 309.434 106.397 301.058 106.397 L 292.683 106.397 292.683 102.441 L 292.683 98.485 300.427 98.437 L 308.171 98.389 308.204 96.318 L 308.237 94.248 300.460 94.248 L 292.683 94.248 292.683 90.290 L 292.683 86.332 301.058 86.332 L 309.434 86.332 309.434 84.123 L 309.434 81.914 298.757 81.914 L 288.081 81.914 288.081 96.270 M342.613 96.275 L 342.660 110.637 353.290 110.680 L 363.921 110.723 363.921 108.560 L 363.921 106.397 355.545 106.397 L 347.170 106.397 347.170 102.439 L 347.170 98.481 354.901 98.481 L 362.632 98.481 362.632 96.656 C 362.632 95.651,362.683 94.699,362.744 94.539 C 362.845 94.276,362.089 94.248,355.013 94.248 L 347.170 94.248 347.170 90.290 L 347.170 86.332 355.545 86.332 L 363.921 86.332 363.921 84.123 L 363.921 81.914 353.243 81.914 L 342.566 81.914 342.613 96.275 M228.900 86.268 C 235.442 87.721,238.628 96.360,234.771 102.187 C 229.872 109.588,218.396 107.626,216.329 99.034 C 214.411 91.059,220.882 84.487,228.900 86.268 M27.804 89.310 L 30.739 91.000 30.786 108.121 L 30.833 125.242 51.173 136.948 L 71.514 148.655 71.563 153.290 L 71.612 157.925 67.876 155.769 C 65.820 154.583,55.258 148.477,44.403 142.200 L 24.667 130.787 24.666 109.204 C 24.666 97.333,24.712 87.621,24.767 87.621 C 24.823 87.621,26.189 88.381,27.804 89.310 M122.964 109.208 L 122.964 130.796 100.378 143.861 C 87.956 151.047,77.393 157.156,76.905 157.438 L 76.018 157.949 76.067 153.309 L 76.116 148.668 96.457 136.960 L 116.797 125.252 116.844 108.136 L 116.891 91.021 119.789 89.330 C 121.383 88.401,122.750 87.636,122.826 87.630 C 122.902 87.625,122.964 97.335,122.964 109.208 M18.086 95.710 L 20.433 97.059 20.433 115.212 L 20.433 133.364 46.019 148.160 L 71.606 162.957 71.606 167.525 L 71.606 172.093 65.942 168.835 C 62.827 167.044,49.989 159.655,37.413 152.416 L 14.548 139.254 14.545 116.457 L 14.542 93.659 15.140 94.010 C 15.469 94.203,16.795 94.968,18.086 95.710 M133.087 116.475 L 133.086 139.254 105.439 155.177 C 90.234 163.935,77.395 171.329,76.908 171.610 L 76.024 172.120 76.024 167.545 L 76.024 162.969 101.611 148.171 L 127.197 133.372 127.197 115.214 L 127.197 97.055 130.097 95.386 C 131.691 94.468,133.017 93.713,133.042 93.706 C 133.067 93.700,133.087 103.946,133.087 116.475 M7.437 101.513 L 10.308 103.165 10.310 122.498 L 10.312 141.832 40.959 159.476 L 71.606 177.120 71.606 181.711 L 71.606 186.302 70.732 185.789 C 70.251 185.507,55.113 176.772,37.092 166.377 L 4.326 147.478 4.279 123.608 C 4.251 109.368,4.300 99.764,4.399 99.800 C 4.491 99.834,5.858 100.605,7.437 101.513 M143.351 123.631 L 143.304 147.491 109.986 166.715 C 91.661 177.289,76.523 186.020,76.346 186.119 C 76.043 186.289,76.024 186.027,76.024 181.716 L 76.024 177.132 106.673 159.482 L 137.322 141.832 137.322 122.503 L 137.323 103.175 140.222 101.488 C 141.816 100.560,143.183 99.794,143.259 99.785 C 143.335 99.777,143.377 110.507,143.351 123.631 M182.789 129.038 L 182.789 143.396 185.090 143.396 L 187.391 143.396 187.391 137.230 L 187.391 131.063 194.938 131.063 L 202.485 131.063 202.485 137.230 L 202.485 143.396 204.786 143.396 L 207.087 143.396 207.087 129.038 L 207.087 114.680 204.786 114.680 L 202.485 114.680 202.485 120.755 L 202.485 126.829 194.938 126.829 L 187.391 126.829 187.391 120.755 L 187.391 114.680 185.090 114.680 L 182.789 114.680 182.789 129.038 M219.672 116.291 C 217.967 119.958,217.395 121.227,217.395 121.345 C 217.395 121.413,216.981 122.323,216.475 123.366 C 215.969 124.410,215.555 125.320,215.555 125.388 C 215.555 125.455,215.182 126.298,214.726 127.260 C 214.271 128.222,213.898 129.052,213.898 129.105 C 213.898 129.157,213.566 129.904,213.162 130.765 C 212.757 131.625,212.425 132.380,212.425 132.442 C 212.425 132.504,211.970 133.510,211.413 134.677 C 210.856 135.844,210.400 136.877,210.400 136.972 C 210.400 137.068,210.069 137.805,209.664 138.610 C 209.259 139.416,208.928 140.195,208.928 140.342 C 208.928 140.489,208.798 140.739,208.638 140.898 C 208.479 141.057,208.398 141.187,208.458 141.187 C 208.517 141.187,208.357 141.599,208.103 142.102 C 207.425 143.438,207.362 143.397,210.078 143.393 L 212.517 143.390 212.919 142.427 C 213.139 141.897,213.373 141.277,213.437 141.049 C 213.502 140.821,213.618 140.635,213.695 140.635 C 213.773 140.635,213.838 140.532,213.840 140.405 C 213.841 140.278,214.186 139.482,214.607 138.636 C 215.027 137.789,215.370 136.982,215.370 136.841 C 215.370 136.627,216.500 136.585,222.240 136.585 L 229.109 136.585 229.821 138.104 C 230.212 138.939,230.668 139.954,230.833 140.359 C 230.997 140.764,231.366 141.613,231.651 142.246 L 232.170 143.396 234.631 143.396 C 235.984 143.396,237.092 143.360,237.092 143.315 C 237.092 143.271,236.719 142.442,236.263 141.473 C 235.808 140.505,235.435 139.660,235.435 139.596 C 235.435 139.532,235.108 138.797,234.708 137.963 C 234.308 137.130,233.926 136.230,233.860 135.964 C 233.793 135.698,233.664 135.481,233.574 135.481 C 233.484 135.481,233.410 135.375,233.410 135.246 C 233.410 135.116,233.127 134.419,232.781 133.697 C 232.434 132.974,232.200 132.335,232.259 132.275 C 232.318 132.216,232.270 132.168,232.152 132.168 C 232.034 132.168,231.937 132.069,231.937 131.949 C 231.937 131.829,231.558 130.897,231.095 129.878 C 230.631 128.859,229.916 127.280,229.506 126.369 C 229.095 125.458,228.439 124.024,228.048 123.183 C 227.656 122.342,227.335 121.604,227.335 121.544 C 227.335 121.484,227.137 121.012,226.894 120.496 C 225.653 117.857,224.653 115.606,224.494 115.094 C 224.371 114.699,224.278 114.680,222.393 114.680 L 220.420 114.680 219.672 116.291 M237.600 129.038 L 237.648 143.396 239.947 143.396 L 242.246 143.396 242.246 137.414 L 242.246 131.431 249.701 131.431 L 257.156 131.431 257.156 129.268 L 257.156 127.105 249.708 127.155 L 242.259 127.206 242.206 123.060 L 242.154 118.914 250.391 118.914 L 258.629 118.914 258.629 116.797 L 258.629 114.680 248.090 114.680 L 237.552 114.680 237.600 129.038 M259.917 129.038 L 259.917 143.396 262.218 143.396 L 264.519 143.396 264.519 129.038 L 264.519 114.680 262.218 114.680 L 259.917 114.680 259.917 129.038 M267.740 116.705 L 267.740 118.730 275.518 118.730 C 279.795 118.730,283.295 118.798,283.295 118.881 C 283.295 118.964,283.019 119.357,282.682 119.755 C 282.344 120.153,281.291 121.555,280.341 122.872 C 278.291 125.711,278.467 125.474,277.815 126.277 C 277.527 126.631,276.511 127.998,275.557 129.314 C 273.610 132.001,273.702 131.876,273.108 132.628 C 272.869 132.931,271.857 134.298,270.861 135.665 C 269.865 137.032,268.962 138.251,268.855 138.374 C 268.345 138.961,268.201 139.155,268.201 139.255 C 268.201 139.314,267.994 139.586,267.740 139.859 C 267.327 140.305,267.280 140.509,267.280 141.876 L 267.280 143.396 278.509 143.396 L 289.738 143.396 289.738 141.373 L 289.738 139.350 281.818 139.302 L 273.899 139.254 275.219 137.414 C 275.945 136.401,276.713 135.353,276.926 135.083 C 277.447 134.423,277.620 134.189,279.429 131.703 C 280.923 129.652,282.379 127.685,282.697 127.289 C 282.778 127.188,283.504 126.194,284.309 125.081 C 285.114 123.967,285.857 122.960,285.960 122.843 C 286.064 122.726,286.914 121.590,287.851 120.319 L 289.554 118.008 289.554 116.344 L 289.554 114.680 278.647 114.680 L 267.740 114.681 267.740 116.705 M302.690 116.291 C 300.986 119.958,300.414 121.227,300.414 121.345 C 300.414 121.413,299.995 122.323,299.484 123.366 C 298.972 124.410,298.524 125.389,298.489 125.541 C 298.454 125.693,298.086 126.537,297.671 127.416 C 297.256 128.296,296.917 129.057,296.917 129.108 C 296.917 129.159,296.585 129.904,296.180 130.765 C 295.775 131.625,295.444 132.380,295.444 132.442 C 295.444 132.504,294.988 133.510,294.432 134.677 C 293.875 135.844,293.419 136.877,293.419 136.972 C 293.419 137.068,293.088 137.805,292.683 138.610 C 292.278 139.416,291.947 140.195,291.947 140.342 C 291.947 140.489,291.816 140.739,291.657 140.898 C 291.498 141.057,291.417 141.187,291.476 141.187 C 291.536 141.187,291.376 141.599,291.121 142.102 C 290.444 143.438,290.381 143.396,293.097 143.394 L 295.536 143.392 296.042 142.207 C 296.321 141.555,296.549 140.935,296.549 140.828 C 296.549 140.722,296.618 140.635,296.702 140.635 C 296.786 140.635,296.857 140.532,296.858 140.405 C 296.860 140.278,297.205 139.482,297.625 138.636 C 298.046 137.789,298.389 136.982,298.389 136.841 C 298.389 136.627,299.519 136.585,305.262 136.585 L 312.135 136.585 312.750 137.920 C 313.088 138.654,313.543 139.669,313.761 140.175 C 313.980 140.681,314.390 141.613,314.673 142.246 L 315.188 143.396 317.649 143.396 C 319.003 143.396,320.110 143.360,320.110 143.315 C 320.110 143.271,319.738 142.442,319.282 141.473 C 318.827 140.505,318.454 139.660,318.454 139.595 C 318.454 139.531,318.081 138.702,317.625 137.753 C 317.170 136.803,316.797 135.904,316.797 135.754 C 316.797 135.604,316.714 135.481,316.613 135.481 C 316.512 135.481,316.429 135.375,316.429 135.246 C 316.429 135.116,316.146 134.419,315.799 133.697 C 315.453 132.974,315.219 132.335,315.278 132.275 C 315.337 132.216,315.289 132.168,315.171 132.168 C 315.053 132.168,314.956 132.064,314.957 131.937 C 314.957 131.811,314.575 130.879,314.109 129.867 C 313.642 128.854,312.943 127.322,312.555 126.461 C 312.167 125.601,311.513 124.167,311.102 123.275 C 310.691 122.383,310.354 121.604,310.354 121.544 C 310.354 121.484,310.156 121.012,309.913 120.496 C 308.672 117.857,307.671 115.606,307.513 115.094 C 307.390 114.699,307.297 114.680,305.412 114.680 L 303.439 114.680 302.690 116.291 M322.460 129.038 L 322.508 143.396 330.212 143.396 C 338.672 143.396,339.258 143.341,341.182 142.367 C 346.444 139.704,346.933 131.780,342.006 129.011 L 341.287 128.606 341.806 128.290 C 344.545 126.625,345.381 120.649,343.243 118.024 C 340.706 114.908,339.826 114.685,330.051 114.682 L 322.411 114.680 322.460 129.038 M357.005 115.094 C 356.845 115.605,355.971 117.572,354.625 120.450 C 354.372 120.992,354.165 121.486,354.165 121.549 C 354.165 121.612,353.838 122.332,353.438 123.150 C 353.039 123.968,352.654 124.820,352.583 125.043 C 352.512 125.266,352.184 126.029,351.854 126.737 C 350.273 130.135,349.563 131.749,349.563 131.949 C 349.563 132.069,349.475 132.168,349.368 132.168 C 349.261 132.168,349.224 132.250,349.287 132.352 C 349.349 132.453,349.327 132.536,349.236 132.536 C 349.146 132.536,349.071 132.639,349.070 132.766 C 349.069 132.892,348.724 133.696,348.303 134.552 C 347.882 135.407,347.538 136.169,347.538 136.243 C 347.538 136.318,347.207 137.083,346.802 137.944 C 346.397 138.804,346.065 139.548,346.065 139.596 C 346.065 139.645,345.693 140.472,345.237 141.434 C 344.781 142.396,344.409 143.231,344.409 143.290 C 344.409 143.348,345.516 143.396,346.870 143.396 L 349.331 143.396 349.849 142.246 C 350.135 141.613,350.503 140.764,350.668 140.359 C 350.832 139.954,351.288 138.939,351.679 138.104 L 352.392 136.585 359.261 136.585 C 364.769 136.585,366.130 136.633,366.130 136.824 C 366.130 136.956,366.474 137.763,366.895 138.619 C 367.316 139.475,367.661 140.278,367.662 140.405 C 367.663 140.532,367.727 140.635,367.805 140.635 C 367.882 140.635,367.999 140.821,368.063 141.049 C 368.128 141.277,368.361 141.897,368.582 142.427 L 368.983 143.390 371.422 143.393 C 372.763 143.395,373.861 143.321,373.861 143.230 C 373.861 143.138,373.523 142.331,373.109 141.435 C 372.696 140.539,372.063 139.144,371.703 138.334 C 371.343 137.524,370.728 136.177,370.338 135.340 C 369.947 134.503,369.627 133.768,369.627 133.708 C 369.627 133.647,369.330 132.965,368.967 132.192 C 368.605 131.419,368.100 130.290,367.846 129.682 C 367.591 129.075,367.060 127.893,366.665 127.056 C 366.269 126.219,365.946 125.473,365.945 125.399 C 365.945 125.325,365.531 124.410,365.025 123.366 C 364.519 122.323,364.105 121.413,364.105 121.345 C 364.105 121.227,363.533 119.958,361.829 116.291 L 361.080 114.680 359.107 114.680 C 357.223 114.680,357.129 114.699,357.005 115.094 M374.413 129.038 L 374.413 143.396 380.472 143.396 C 388.486 143.396,390.763 142.946,394.064 140.709 C 402.988 134.662,401.718 120.318,391.888 116.135 C 388.776 114.811,387.776 114.680,380.740 114.680 L 374.413 114.680 374.413 129.038 M337.874 119.374 C 340.422 120.648,340.921 123.796,338.885 125.744 C 337.860 126.724,337.170 126.829,331.764 126.829 L 327.013 126.830 327.066 122.764 L 327.119 118.698 331.944 118.760 L 336.769 118.822 337.874 119.374 M388.587 119.625 C 393.864 121.407,396.320 125.922,395.118 131.634 C 394.053 136.697,389.825 139.140,382.098 139.156 L 379.015 139.162 379.015 129.018 L 379.015 118.873 382.927 118.954 C 386.740 119.033,386.882 119.050,388.587 119.625 M222.549 121.404 C 222.549 121.559,222.787 122.160,223.078 122.739 C 223.368 123.318,223.669 123.999,223.747 124.252 C 223.824 124.505,224.249 125.484,224.691 126.426 C 225.133 127.369,225.495 128.203,225.495 128.280 C 225.495 128.358,225.739 128.925,226.038 129.542 C 226.588 130.678,227.151 131.971,227.151 132.098 C 227.151 132.136,224.960 132.168,222.281 132.168 L 217.411 132.168 217.955 131.017 C 218.255 130.384,218.500 129.763,218.500 129.636 C 218.500 129.510,218.569 129.406,218.653 129.406 C 218.738 129.406,218.809 129.303,218.813 129.176 C 218.818 128.963,219.694 126.965,221.458 123.145 C 221.856 122.283,222.181 121.475,222.181 121.350 C 222.181 121.225,222.264 121.123,222.365 121.123 C 222.467 121.123,222.549 121.249,222.549 121.404 M305.568 121.404 C 305.568 121.559,305.806 122.160,306.097 122.739 C 306.387 123.318,306.688 123.999,306.766 124.252 C 306.843 124.505,307.268 125.484,307.710 126.426 C 308.152 127.369,308.514 128.203,308.514 128.280 C 308.514 128.358,308.758 128.925,309.057 129.542 C 309.607 130.678,310.170 131.971,310.170 132.098 C 310.170 132.136,307.979 132.168,305.300 132.168 L 300.430 132.168 300.974 131.017 C 301.273 130.384,301.518 129.763,301.518 129.636 C 301.519 129.510,301.615 129.406,301.733 129.406 C 301.852 129.406,301.901 129.359,301.843 129.301 C 301.744 129.203,302.446 127.557,304.392 123.320 C 304.836 122.352,305.200 121.461,305.200 121.341 C 305.200 121.221,305.283 121.123,305.384 121.123 C 305.486 121.123,305.568 121.249,305.568 121.404 M360.175 123.303 C 360.615 124.249,360.976 125.083,360.976 125.157 C 360.976 125.231,361.212 125.782,361.500 126.382 C 361.789 126.983,362.256 128.012,362.538 128.670 C 362.820 129.328,363.284 130.384,363.568 131.017 L 364.086 132.168 359.217 132.168 C 356.540 132.168,354.349 132.127,354.349 132.076 C 354.349 131.985,355.641 129.066,356.508 127.197 C 356.767 126.641,357.160 125.729,357.382 125.173 C 358.190 123.148,359.215 121.088,359.294 121.332 C 359.338 121.470,359.735 122.357,360.175 123.303 M338.471 131.502 C 341.687 132.987,341.610 137.100,338.334 138.820 C 337.529 139.243,337.361 139.256,332.260 139.313 L 327.013 139.371 327.013 135.113 L 327.013 130.854 332.168 130.913 L 337.322 130.971 338.471 131.502 " stroke="none" fill="#2b2b6c" fill-rule="evenodd"></path></g></svg>