<svg id="svg" xmlns="http://www.w3.org/2000/svg" xmlns:xlink="http://www.w3.org/1999/xlink" width="400" height="400" viewBox="0, 0, 400,400" version="1.1"><g id="svgg"><path id="path0" d="M176.563 7.813 C 175.149 9.226,175.000 10.417,175.000 20.313 L 175.000 31.250 167.337 31.250 C 155.946 31.250,156.718 29.803,156.250 52.052 L 155.859 70.638 144.576 75.868 C 129.773 82.730,131.250 78.524,131.250 113.821 L 131.250 143.750 118.750 143.750 L 106.250 143.750 106.250 149.991 L 106.250 156.232 137.669 156.436 L 169.087 156.641 148.801 165.763 C 132.313 173.177,127.631 174.963,123.792 175.304 C 105.185 176.958,86.757 191.386,79.127 210.274 C 66.703 241.034,84.790 277.511,116.519 285.685 C 119.465 286.444,121.875 287.259,121.875 287.496 C 121.875 287.734,120.008 293.515,117.727 300.345 L 113.578 312.762 110.986 308.139 C 90.942 272.392,35.510 272.186,14.237 307.780 C -15.222 357.073,38.575 414.183,89.194 387.353 C 105.261 378.838,118.672 358.699,118.738 342.987 C 118.750 340.348,130.417 303.906,131.251 303.906 C 132.436 303.906,142.980 338.427,143.762 344.869 C 149.889 395.279,212.902 413.273,244.470 373.628 C 250.968 365.467,256.250 351.935,256.250 343.448 C 256.250 340.459,267.806 303.906,268.751 303.906 C 269.867 303.906,280.722 338.993,281.354 344.645 C 286.191 387.879,339.031 409.116,373.028 381.490 C 404.064 356.270,399.411 306.077,364.330 287.684 C 337.860 273.806,302.949 283.288,289.014 308.139 L 286.422 312.762 282.273 300.345 C 279.992 293.515,278.125 287.728,278.125 287.485 C 278.125 287.241,280.101 286.627,282.515 286.120 C 316.333 279.027,335.040 238.082,319.185 205.859 C 310.923 189.067,290.458 175.000,274.292 175.000 C 272.387 175.000,264.992 172.061,251.196 165.820 L 230.902 156.641 262.326 156.436 L 293.750 156.232 293.750 149.991 L 293.750 143.750 281.250 143.750 L 268.750 143.750 268.750 113.821 C 268.750 78.463,270.215 82.628,255.376 75.793 L 244.141 70.617 243.750 52.041 C 243.282 29.804,244.053 31.250,232.663 31.250 L 225.000 31.250 225.000 20.312 C 225.000 4.976,227.264 6.250,200.000 6.250 C 179.167 6.250,178.051 6.324,176.563 7.813 M212.500 25.000 L 212.500 31.250 200.000 31.250 L 187.500 31.250 187.500 25.000 L 187.500 18.750 200.000 18.750 L 212.500 18.750 212.500 25.000 M231.250 93.750 L 231.250 143.750 225.000 143.750 L 218.750 143.750 218.750 120.313 C 218.750 90.742,220.874 93.750,200.000 93.750 C 179.126 93.750,181.250 90.742,181.250 120.313 L 181.250 143.750 175.000 143.750 L 168.750 143.750 168.750 93.750 L 168.750 43.750 200.000 43.750 L 231.250 43.750 231.250 93.750 M181.250 62.500 L 181.250 68.750 187.500 68.750 L 193.750 68.750 193.750 62.500 L 193.750 56.250 187.500 56.250 L 181.250 56.250 181.250 62.500 M206.250 62.500 L 206.250 68.750 212.500 68.750 L 218.750 68.750 218.750 62.500 L 218.750 56.250 212.500 56.250 L 206.250 56.250 206.250 62.500 M156.250 114.453 L 156.250 143.750 150.000 143.750 L 143.750 143.750 143.758 117.383 L 143.767 91.016 149.813 88.158 C 153.139 86.587,155.947 85.268,156.055 85.229 C 156.162 85.189,156.250 98.340,156.250 114.453 M256.250 117.358 L 256.250 143.750 250.000 143.750 L 243.750 143.750 243.750 114.519 L 243.750 85.288 250.000 88.127 L 256.250 90.966 256.250 117.358 M206.250 125.000 L 206.250 143.750 200.000 143.750 L 193.750 143.750 193.750 125.000 L 193.750 106.250 200.000 106.250 L 206.250 106.250 206.250 125.000 M223.464 168.088 C 235.910 173.739,246.093 178.573,246.092 178.830 C 246.091 179.087,244.206 180.281,241.903 181.485 C 197.166 204.859,205.831 274.652,254.883 286.032 C 257.354 286.605,259.375 287.266,259.375 287.501 C 259.375 287.736,257.508 293.515,255.227 300.345 L 251.078 312.762 248.661 308.480 C 228.311 272.420,171.706 272.391,151.367 308.430 L 148.922 312.762 144.773 300.345 C 142.492 293.515,140.625 287.736,140.625 287.501 C 140.625 287.266,142.646 286.605,145.117 286.032 C 194.169 274.652,202.834 204.859,158.097 181.485 C 155.794 180.281,153.909 179.087,153.908 178.830 C 153.906 178.249,198.452 157.895,199.831 157.847 C 200.382 157.828,211.017 162.436,223.464 168.088 M141.016 189.142 C 170.425 194.897,184.649 234.243,165.619 257.199 L 163.213 260.100 158.365 255.160 C 150.814 247.466,141.983 243.750,131.250 243.750 C 120.517 243.750,111.686 247.466,104.135 255.160 L 99.287 260.100 96.881 257.199 C 71.728 226.857,101.234 181.359,141.016 189.142 M275.985 188.635 C 307.909 194.327,323.064 233.510,302.701 257.709 L 300.700 260.087 295.858 255.153 C 280.695 239.702,256.761 239.747,241.542 255.255 C 236.914 259.970,236.529 260.200,235.494 258.857 C 212.840 229.436,231.288 189.922,268.750 187.626 C 269.395 187.587,272.650 188.041,275.985 188.635 M123.047 201.484 C 108.624 208.176,108.979 230.187,123.608 236.289 C 136.378 241.615,149.966 232.574,149.966 218.750 C 149.966 204.668,135.787 195.573,123.047 201.484 M260.547 201.484 C 246.124 208.176,246.479 230.187,261.108 236.289 C 273.878 241.615,287.466 232.574,287.466 218.750 C 287.466 204.668,273.287 195.573,260.547 201.484 M135.156 214.844 C 136.024 215.712,136.719 217.448,136.719 218.750 C 136.719 220.052,136.024 221.788,135.156 222.656 C 134.288 223.524,132.552 224.219,131.250 224.219 C 129.948 224.219,128.212 223.524,127.344 222.656 C 126.476 221.788,125.781 220.052,125.781 218.750 C 125.781 217.448,126.476 215.712,127.344 214.844 C 128.212 213.976,129.948 213.281,131.250 213.281 C 132.552 213.281,134.288 213.976,135.156 214.844 M272.656 214.844 C 273.524 215.712,274.219 217.448,274.219 218.750 C 274.219 220.052,273.524 221.788,272.656 222.656 C 271.788 223.524,270.052 224.219,268.750 224.219 C 267.448 224.219,265.712 223.524,264.844 222.656 C 263.976 221.788,263.281 220.052,263.281 218.750 C 263.281 217.448,263.976 215.712,264.844 214.844 C 265.712 213.976,267.448 213.281,268.750 213.281 C 270.052 213.281,271.788 213.976,272.656 214.844 M143.058 259.890 C 146.607 261.821,152.344 267.331,152.344 268.808 C 152.344 272.997,129.107 275.767,119.141 272.765 C 109.399 269.830,109.023 269.278,113.583 264.586 C 121.642 256.295,133.099 254.469,143.058 259.890 M280.558 259.890 C 284.107 261.821,289.844 267.331,289.844 268.808 C 289.844 272.997,266.607 275.767,256.641 272.765 C 246.899 269.830,246.523 269.278,251.083 264.586 C 259.142 256.295,270.599 254.469,280.558 259.890 M72.266 295.392 C 101.675 301.147,115.899 340.493,96.869 363.449 L 94.463 366.350 89.615 361.410 C 82.064 353.716,73.233 350.000,62.500 350.000 C 51.767 350.000,42.936 353.716,35.385 361.410 L 30.537 366.350 28.131 363.449 C 2.966 333.094,32.466 287.605,72.266 295.392 M209.766 295.392 C 239.175 301.147,253.399 340.493,234.369 363.449 L 231.963 366.350 227.115 361.410 C 219.564 353.716,210.733 350.000,200.000 350.000 C 189.267 350.000,180.436 353.716,172.885 361.410 L 168.037 366.350 165.631 363.449 C 140.466 333.094,169.966 287.605,209.766 295.392 M347.266 295.392 C 376.675 301.147,390.899 340.493,371.869 363.449 L 369.463 366.350 364.615 361.410 C 357.064 353.716,348.233 350.000,337.500 350.000 C 326.767 350.000,317.936 353.716,310.385 361.410 L 305.537 366.350 303.131 363.449 C 277.966 333.094,307.466 287.605,347.266 295.392 M54.297 307.734 C 39.874 314.426,40.229 336.437,54.858 342.539 C 67.628 347.865,81.216 338.824,81.216 325.000 C 81.216 310.918,67.037 301.823,54.297 307.734 M191.797 307.734 C 177.374 314.426,177.729 336.437,192.358 342.539 C 205.128 347.865,218.716 338.824,218.716 325.000 C 218.716 310.918,204.537 301.823,191.797 307.734 M329.297 307.734 C 314.874 314.426,315.229 336.437,329.858 342.539 C 342.628 347.865,356.216 338.824,356.216 325.000 C 356.216 310.918,342.037 301.823,329.297 307.734 M66.406 321.094 C 67.274 321.962,67.969 323.698,67.969 325.000 C 67.969 326.302,67.274 328.038,66.406 328.906 C 63.025 332.288,57.031 329.790,57.031 325.000 C 57.031 321.993,59.493 319.531,62.500 319.531 C 63.802 319.531,65.538 320.226,66.406 321.094 M203.906 321.094 C 204.774 321.962,205.469 323.698,205.469 325.000 C 205.469 326.302,204.774 328.038,203.906 328.906 C 203.038 329.774,201.302 330.469,200.000 330.469 C 198.698 330.469,196.962 329.774,196.094 328.906 C 195.226 328.038,194.531 326.302,194.531 325.000 C 194.531 323.698,195.226 321.962,196.094 321.094 C 196.962 320.226,198.698 319.531,200.000 319.531 C 201.302 319.531,203.038 320.226,203.906 321.094 M341.406 321.094 C 342.274 321.962,342.969 323.698,342.969 325.000 C 342.969 326.302,342.274 328.038,341.406 328.906 C 340.538 329.774,338.802 330.469,337.500 330.469 C 336.198 330.469,334.462 329.774,333.594 328.906 C 332.726 328.038,332.031 326.302,332.031 325.000 C 332.031 323.698,332.726 321.962,333.594 321.094 C 334.462 320.226,336.198 319.531,337.500 319.531 C 338.802 319.531,340.538 320.226,341.406 321.094 M74.308 366.140 C 77.848 368.067,83.594 373.580,83.594 375.050 C 83.594 375.352,81.748 376.327,79.492 377.215 C 67.763 381.836,57.237 381.836,45.508 377.215 C 40.548 375.262,40.547 375.247,44.833 370.836 C 52.892 362.545,64.349 360.719,74.308 366.140 M211.808 366.140 C 215.348 368.067,221.094 373.580,221.094 375.050 C 221.094 375.352,219.248 376.327,216.992 377.215 C 205.263 381.836,194.737 381.836,183.008 377.215 C 178.048 375.262,178.047 375.247,182.333 370.836 C 190.392 362.545,201.849 360.719,211.808 366.140 M349.308 366.140 C 352.848 368.067,358.594 373.580,358.594 375.050 C 358.594 375.352,356.748 376.327,354.492 377.215 C 342.763 381.836,332.237 381.836,320.508 377.215 C 315.548 375.262,315.547 375.247,319.833 370.836 C 327.892 362.545,339.349 360.719,349.308 366.140 " stroke="none" fill="#E03C28" fill-rule="evenodd"></path></g></svg>