<svg id="svg" xmlns="http://www.w3.org/2000/svg" xmlns:xlink="http://www.w3.org/1999/xlink" width="400" height="400" viewBox="0, 0, 400,400" version="1.1"><g id="svgg"><path id="path0" d="M189.453 21.897 C 111.815 28.939,66.898 114.873,105.549 182.423 C 144.032 249.682,239.120 255.737,285.540 193.885 C 313.303 156.894,314.048 103.710,287.321 66.817 L 285.043 63.672 333.274 63.471 C 385.962 63.251,383.431 63.047,386.513 67.750 C 387.807 69.724,387.903 75.532,388.101 163.051 L 388.312 256.250 364.183 256.250 C 336.543 256.250,335.938 256.382,335.938 262.421 C 335.938 268.706,336.134 268.750,363.974 268.750 L 388.394 268.750 388.143 284.961 C 387.859 303.238,387.298 305.435,382.395 307.483 C 378.399 309.153,21.601 309.153,17.605 307.483 C 12.702 305.435,12.141 303.238,11.857 284.961 L 11.606 268.750 163.260 268.750 L 314.915 268.750 316.832 266.832 C 319.160 264.504,319.336 261.053,317.257 258.485 L 315.763 256.641 163.741 256.439 L 11.719 256.238 11.737 165.033 C 11.757 68.509,11.743 68.883,15.596 65.430 L 17.993 63.281 54.583 63.281 C 78.118 63.281,92.012 62.989,93.526 62.461 C 97.568 61.052,98.796 56.347,96.037 52.840 L 94.418 50.781 55.217 50.798 C 8.281 50.819,7.498 50.996,1.865 62.891 L 0.015 66.797 0.008 185.979 L 0.000 305.162 2.014 309.203 C 4.189 313.568,6.960 316.277,12.018 318.983 L 15.234 320.703 82.227 320.915 L 149.219 321.128 149.219 343.767 L 149.219 366.406 139.119 366.406 C 126.242 366.406,122.170 369.933,127.667 376.324 L 129.552 378.516 197.393 378.749 C 269.285 378.996,270.107 378.958,271.746 375.361 C 274.827 368.599,271.784 366.406,259.318 366.406 L 249.219 366.406 249.219 343.767 L 249.219 321.127 316.992 320.915 L 384.766 320.703 387.982 318.983 C 393.040 316.277,395.811 313.568,397.986 309.203 L 400.000 305.162 399.983 185.979 C 399.966 67.812,399.952 66.767,398.376 63.281 C 396.242 58.562,392.616 54.884,387.891 52.646 L 383.984 50.797 328.641 50.789 L 273.297 50.781 268.485 46.474 C 260.207 39.065,254.060 37.521,251.546 42.218 C 249.611 45.833,250.574 48.211,255.664 52.387 C 297.585 86.786,306.665 138.342,278.457 181.805 C 239.247 242.219,147.450 236.890,114.485 172.286 C 77.418 99.641,144.456 16.392,223.312 37.143 C 232.070 39.447,233.656 39.504,236.007 37.601 C 246.955 28.736,218.791 19.236,189.453 21.897 M134.766 71.159 C 127.818 75.206,130.926 82.813,139.527 82.813 C 145.955 82.813,144.421 77.789,154.660 132.369 C 164.026 182.298,163.719 181.250,168.955 181.250 C 171.586 181.250,171.960 181.452,171.487 182.617 C 168.538 189.874,170.236 195.554,176.223 198.459 C 186.252 203.324,195.848 193.092,191.080 182.617 C 190.504 181.350,191.264 181.250,201.439 181.250 L 212.420 181.250 211.208 184.152 C 205.761 197.187,225.168 206.267,231.656 193.720 C 233.121 190.888,233.133 186.179,231.682 183.398 L 230.561 181.250 234.365 181.250 C 240.706 181.250,243.473 175.928,239.521 171.333 L 237.637 169.141 205.978 168.920 L 174.319 168.699 173.459 164.233 C 172.986 161.776,172.469 159.150,172.310 158.398 C 172.039 157.113,174.031 157.031,205.593 157.031 C 241.555 157.031,241.577 157.029,242.860 152.936 C 245.670 143.962,253.998 95.076,253.089 92.882 C 251.322 88.616,252.231 88.702,203.968 88.281 L 159.107 87.891 158.071 83.326 C 156.083 74.572,151.852 71.142,142.364 70.596 C 138.566 70.378,135.749 70.586,134.766 71.159 M343.324 86.293 C 341.530 88.086,341.406 88.743,341.406 96.449 L 341.406 104.688 333.308 104.688 C 323.503 104.688,321.094 105.904,321.094 110.858 C 321.094 116.077,323.192 117.188,333.058 117.188 L 341.406 117.188 341.406 125.645 C 341.406 135.458,342.515 137.500,347.845 137.500 C 352.676 137.500,353.906 135.022,353.906 125.285 L 353.906 117.188 362.364 117.188 C 372.009 117.188,374.219 116.043,374.219 111.047 C 374.219 106.050,371.632 104.688,362.145 104.688 L 353.906 104.688 353.906 96.449 C 353.906 87.031,352.531 84.375,347.656 84.375 C 346.134 84.375,344.533 85.084,343.324 86.293 M179.993 104.883 C 180.223 107.139,180.556 110.654,180.734 112.695 L 181.058 116.406 172.687 116.406 L 164.316 116.406 163.018 109.135 C 162.303 105.135,161.719 101.620,161.719 101.322 C 161.719 101.025,165.736 100.781,170.647 100.781 L 179.575 100.781 179.993 104.883 M209.368 104.492 C 209.364 106.533,209.140 110.049,208.869 112.305 L 208.376 116.406 201.098 116.406 L 193.821 116.406 193.436 113.867 C 193.225 112.471,192.871 108.955,192.649 106.055 L 192.246 100.781 200.811 100.781 L 209.375 100.781 209.368 104.492 M239.844 101.690 C 239.844 102.190,239.248 105.706,238.520 109.503 L 237.197 116.406 229.183 116.406 L 221.170 116.406 221.588 109.570 C 221.817 105.811,222.141 102.295,222.306 101.758 C 222.718 100.422,239.844 100.356,239.844 101.690 M182.031 130.742 C 182.031 131.751,182.259 135.267,182.537 138.554 L 183.042 144.531 176.393 144.531 L 169.745 144.531 168.466 138.086 C 166.501 128.189,166.021 128.906,174.609 128.906 C 181.878 128.906,182.031 128.944,182.031 130.742 M207.362 134.961 C 206.640 145.117,207.043 144.531,200.766 144.531 L 195.313 144.531 195.307 141.992 C 195.304 140.596,195.077 137.080,194.803 134.180 L 194.305 128.906 201.049 128.906 L 207.793 128.906 207.362 134.961 M233.369 136.719 L 231.811 144.531 225.671 144.531 L 219.531 144.531 219.531 140.343 C 219.531 138.040,219.755 134.524,220.028 132.531 L 220.525 128.906 227.726 128.906 L 234.927 128.906 233.369 136.719 M33.624 204.835 C 30.588 208.094,31.855 213.303,36.038 214.762 C 39.363 215.921,71.574 215.921,74.900 214.762 C 79.064 213.310,80.412 207.755,77.344 204.688 C 74.806 202.150,36.004 202.281,33.624 204.835 M35.468 230.005 C 31.688 231.677,30.686 236.936,33.594 239.844 C 36.069 242.319,105.214 242.283,107.457 239.805 C 109.487 237.562,109.343 233.214,107.167 231.037 C 104.968 228.838,40.217 227.906,35.468 230.005 M236.719 343.750 L 236.719 366.406 199.219 366.406 L 161.719 366.406 161.719 343.750 L 161.719 321.094 199.219 321.094 L 236.719 321.094 236.719 343.750 " stroke="none" fill="#E03C28" fill-rule="evenodd"></path></g></svg>