<svg id="svg" xmlns="http://www.w3.org/2000/svg" xmlns:xlink="http://www.w3.org/1999/xlink" width="400" height="400" viewBox="0, 0, 400,400" version="1.1"><g id="svgg"><path id="path0" d="M320.109 13.875 C 304.506 29.497,305.266 28.223,309.159 32.210 L 312.069 35.190 300.958 46.301 L 289.846 57.413 283.404 50.970 L 276.962 44.528 232.239 89.246 L 187.516 133.963 181.436 127.919 C 178.092 124.595,175.009 121.875,174.584 121.875 C 173.573 121.875,146.094 149.389,146.094 150.401 C 146.094 150.828,165.430 170.511,189.063 194.141 L 232.031 237.104 246.670 222.466 L 261.308 207.827 254.878 201.363 L 248.447 194.899 266.005 177.354 L 283.563 159.809 286.800 162.912 C 301.224 176.741,321.875 210.740,321.875 220.659 C 321.875 220.781,320.215 221.515,318.186 222.290 C 294.746 231.242,299.071 268.891,323.860 271.686 C 327.688 272.117,327.496 271.113,325.726 281.445 C 325.230 284.346,324.528 286.719,324.168 286.719 C 323.808 286.719,321.489 286.191,319.015 285.547 C 312.289 283.795,211.119 283.803,204.390 285.555 C 189.792 289.358,180.469 302.055,180.469 318.133 L 180.469 323.438 222.266 323.438 L 264.063 323.438 264.063 335.938 L 264.063 348.438 217.352 348.438 C 161.049 348.437,161.063 348.436,151.209 358.289 C 143.973 365.526,142.207 371.286,142.196 387.695 L 142.188 400.000 270.703 400.000 L 399.219 400.000 399.214 390.039 C 399.201 361.741,387.949 348.480,363.923 348.447 L 357.143 348.437 361.773 338.685 C 394.730 269.269,381.758 188.010,328.594 130.844 L 320.859 122.527 329.359 114.000 L 337.860 105.473 331.433 99.012 L 325.006 92.552 336.147 81.431 L 347.287 70.311 350.660 73.632 L 354.032 76.953 368.032 62.579 C 375.732 54.673,382.031 47.903,382.031 47.534 C 382.031 46.520,335.851 -0.000,334.844 0.000 C 334.362 0.000,327.732 6.244,320.109 13.875 M7.362 9.180 C 8.984 29.509,17.904 43.214,48.846 72.918 L 61.732 85.289 52.652 94.793 C -16.478 167.155,-16.651 236.100,52.121 307.082 L 61.810 317.083 43.909 334.909 C 16.015 362.684,8.848 374.113,7.375 393.164 L 6.846 400.000 13.860 400.000 L 20.874 400.000 21.329 393.555 C 21.580 390.010,22.216 385.791,22.742 384.180 L 23.700 381.250 71.875 381.250 L 120.050 381.250 121.008 384.180 C 121.534 385.791,122.170 390.010,122.421 393.555 L 122.876 400.000 129.407 400.000 L 135.938 400.000 135.938 393.667 C 135.938 375.265,126.690 360.697,96.392 331.369 L 81.795 317.238 91.315 307.390 C 161.111 235.183,160.336 166.610,88.887 92.504 L 82.037 85.399 91.995 75.720 C 126.797 41.893,135.937 28.087,135.938 9.345 L 135.938 2.344 129.407 2.344 L 122.876 2.344 122.440 8.789 C 122.201 12.334,121.500 16.641,120.884 18.359 L 119.765 21.484 71.824 21.484 L 23.884 21.484 22.536 17.188 C 21.795 14.824,21.168 10.518,21.141 7.617 L 21.094 2.344 13.955 2.344 L 6.816 2.344 7.362 9.180 M358.764 52.549 L 353.906 57.406 339.460 42.975 L 325.013 28.544 329.886 23.628 L 334.759 18.711 349.190 33.201 L 363.621 47.691 358.764 52.549 M110.243 36.523 C 109.831 37.275,107.681 39.912,105.466 42.383 L 101.438 46.875 71.875 46.875 L 42.312 46.875 37.562 41.612 C 34.950 38.718,32.813 36.081,32.813 35.753 C 32.813 35.425,50.403 35.156,71.902 35.156 C 108.896 35.156,110.952 35.230,110.243 36.523 M329.896 52.942 L 337.496 60.571 326.353 71.694 L 315.210 82.817 307.422 75.000 L 299.635 67.183 310.549 56.248 C 316.552 50.233,321.651 45.313,321.879 45.313 C 322.108 45.313,325.715 48.746,329.896 52.942 M81.230 66.854 C 78.019 70.109,74.485 73.429,73.378 74.232 L 71.366 75.694 64.019 68.316 L 56.671 60.938 71.871 60.938 L 87.070 60.938 81.230 66.854 M278.516 145.313 L 238.677 185.157 217.973 164.454 L 197.270 143.751 237.109 103.906 L 276.948 64.061 297.652 84.765 L 318.355 105.468 278.516 145.313 M82.121 105.438 C 87.390 111.007,92.003 116.105,92.373 116.766 C 92.972 117.836,90.703 117.969,71.849 117.969 C 58.204 117.969,50.744 117.693,50.911 117.195 C 51.318 115.989,71.126 95.313,71.875 95.313 C 72.242 95.313,76.853 99.869,82.121 105.438 M107.993 136.927 L 111.690 142.578 104.282 142.802 L 96.875 143.025 96.875 150.028 L 96.875 157.031 108.120 157.031 L 119.365 157.031 121.401 162.118 C 122.521 164.915,123.438 167.552,123.438 167.977 C 123.438 168.479,105.364 168.750,71.875 168.750 C 38.386 168.750,20.313 168.479,20.313 167.977 C 20.313 167.552,21.229 164.915,22.349 162.118 L 24.385 157.031 54.771 157.031 L 85.156 157.031 85.156 150.010 L 85.156 142.989 58.610 142.784 L 32.064 142.578 35.759 136.927 L 39.453 131.276 71.875 131.276 L 104.297 131.276 107.993 136.927 M316.122 137.695 C 362.392 185.267,377.902 252.606,356.881 314.648 C 354.030 323.063,353.810 323.220,352.532 317.773 C 351.059 311.497,347.096 304.373,341.954 298.762 L 337.300 293.682 338.547 287.271 C 339.233 283.745,340.030 278.133,340.317 274.802 C 340.821 268.981,340.945 268.680,343.492 267.106 C 358.706 257.703,356.934 232.896,340.372 223.438 L 336.545 221.252 333.243 211.602 C 325.993 190.414,315.545 173.205,299.890 156.666 L 293.485 149.900 302.003 141.356 C 312.062 131.266,310.311 131.720,316.122 137.695 M236.907 212.686 L 232.027 217.567 198.444 183.991 L 164.861 150.415 169.723 145.509 L 174.586 140.603 208.187 174.205 L 241.788 207.806 236.907 212.686 M127.622 184.961 C 127.843 186.143,128.244 188.779,128.513 190.820 L 129.002 194.531 71.867 194.531 L 14.731 194.531 15.242 190.039 C 15.523 187.568,15.924 184.932,16.132 184.180 C 16.489 182.894,19.813 182.813,71.866 182.813 L 127.220 182.813 127.622 184.961 M128.529 211.523 C 128.269 213.564,127.880 216.377,127.665 217.773 L 127.273 220.313 89.808 220.313 L 52.344 220.313 52.344 226.953 L 52.344 233.594 87.891 233.594 C 109.630 233.594,123.438 233.880,123.438 234.330 C 123.437 234.735,122.518 237.548,121.394 240.580 L 119.350 246.094 71.875 246.094 L 24.400 246.094 22.356 240.580 C 21.232 237.548,20.313 234.735,20.313 234.330 C 20.313 233.908,24.484 233.594,30.078 233.594 L 39.844 233.594 39.844 226.953 L 39.844 220.313 28.187 220.313 L 16.530 220.313 16.119 218.164 C 15.893 216.982,15.480 214.170,15.202 211.914 L 14.697 207.813 71.850 207.813 L 129.002 207.813 128.529 211.523 M334.906 236.033 C 344.377 241.853,340.591 257.128,329.363 258.393 C 325.167 258.866,320.091 256.425,317.940 252.898 C 310.977 241.482,323.506 229.027,334.906 236.033 M110.838 261.133 C 110.323 262.100,108.679 264.736,107.184 266.992 L 104.466 271.094 71.879 271.094 L 39.292 271.094 35.661 265.634 C 33.665 262.632,32.031 259.995,32.031 259.775 C 32.031 259.555,49.973 259.375,71.902 259.375 L 111.774 259.375 110.838 261.133 M88.420 290.430 C 85.830 293.330,81.047 298.332,77.792 301.544 L 71.873 307.385 65.176 300.763 C 61.493 297.121,56.712 292.119,54.553 289.648 L 50.627 285.156 71.878 285.156 L 93.130 285.156 88.420 290.430 M274.011 300.977 C 272.550 302.803,270.565 305.615,269.598 307.227 L 267.841 310.156 231.557 310.156 L 195.272 310.156 196.392 307.992 C 198.580 303.761,203.400 299.964,208.589 298.386 C 209.666 298.059,225.424 297.760,243.607 297.723 L 276.667 297.656 274.011 300.977 M320.041 300.128 C 334.031 305.306,339.930 315.597,340.455 335.742 L 340.786 348.438 321.565 348.438 L 302.344 348.438 302.344 355.040 L 302.344 361.643 336.523 361.876 C 375.359 362.141,374.751 362.049,380.472 368.549 C 384.026 372.587,385.146 375.858,385.152 382.227 L 385.156 386.719 270.313 386.719 L 155.469 386.719 155.469 382.954 C 155.469 374.346,159.680 367.188,166.830 363.642 C 169.809 362.165,172.116 362.101,229.883 361.891 L 289.844 361.672 289.844 355.055 L 289.844 348.438 283.515 348.438 L 277.186 348.438 277.464 335.352 C 278.066 307.051,296.823 291.533,320.041 300.128 M80.078 334.772 L 87.891 342.138 71.875 342.127 L 55.859 342.116 63.672 334.745 C 73.006 325.940,70.706 325.936,80.078 334.772 M106.533 361.523 L 111.669 367.578 91.772 367.787 C 80.829 367.901,62.919 367.901,51.974 367.787 L 32.072 367.578 37.168 361.523 L 42.263 355.469 71.830 355.469 L 101.397 355.469 106.533 361.523 " stroke="none" fill="#E03C28" fill-rule="evenodd"></path></g></svg>