<svg id="svg" xmlns="http://www.w3.org/2000/svg" xmlns:xlink="http://www.w3.org/1999/xlink" width="400" height="400" viewBox="0, 0, 400,400" version="1.1"><g id="svgg"><path id="path0" d="M170.313 14.063 C 168.449 15.926,168.661 14.856,168.065 25.375 L 167.578 33.954 162.891 34.959 C 160.313 35.511,155.125 36.893,151.362 38.028 C 147.599 39.164,144.399 39.949,144.250 39.773 C 144.102 39.597,142.474 36.816,140.634 33.594 C 133.371 20.878,134.459 20.775,106.623 36.810 C 77.274 53.717,78.111 52.633,85.156 64.604 C 87.305 68.254,89.063 71.360,89.063 71.506 C 89.063 71.852,71.852 89.063,71.506 89.063 C 71.360 89.063,68.254 87.305,64.604 85.156 C 52.633 78.111,53.717 77.274,36.810 106.623 C 20.688 134.610,20.770 133.515,34.232 141.016 C 40.385 144.444,40.368 144.412,38.641 149.305 C 37.594 152.274,35.624 159.699,34.053 166.602 L 33.564 168.750 24.594 168.750 C 11.370 168.750,12.500 165.829,12.500 200.000 C 12.500 234.171,11.370 231.250,24.594 231.250 L 33.564 231.250 34.053 233.398 C 35.624 240.301,37.594 247.726,38.641 250.695 C 40.368 255.588,40.385 255.556,34.232 258.984 C 20.770 266.485,20.688 265.390,36.810 293.377 C 53.717 322.726,52.633 321.889,64.604 314.844 C 68.254 312.695,71.360 310.937,71.506 310.937 C 71.852 310.937,89.063 328.148,89.063 328.494 C 89.063 328.640,87.305 331.746,85.156 335.396 C 78.111 347.367,77.274 346.283,106.623 363.190 C 134.459 379.225,133.371 379.122,140.634 366.406 C 142.474 363.184,144.094 360.410,144.233 360.244 C 144.372 360.077,148.276 361.018,152.907 362.334 C 157.539 363.650,162.734 365.029,164.453 365.398 L 167.578 366.069 168.049 374.636 C 168.788 388.101,167.864 387.500,187.839 387.500 C 208.598 387.500,206.250 392.263,206.250 350.149 C 206.250 309.487,207.003 311.801,193.750 311.734 C 181.520 311.672,165.301 307.365,151.044 300.393 C 86.956 269.052,68.037 187.096,111.953 131.053 C 130.563 107.305,160.911 90.528,188.672 88.642 C 208.355 87.305,206.250 91.933,206.250 50.000 C 206.250 7.681,208.660 12.500,187.500 12.500 C 172.917 12.500,171.771 12.604,170.313 14.063 M193.750 50.000 L 193.750 75.000 190.703 75.000 C 174.541 75.000,147.462 84.300,130.529 95.666 C 56.209 145.552,56.209 254.420,130.529 304.332 C 147.452 315.696,174.538 325.000,190.703 325.000 L 193.750 325.000 193.750 350.000 L 193.750 375.000 187.500 375.000 L 181.250 375.000 181.250 366.137 C 181.250 355.081,181.356 355.199,169.071 352.606 C 164.035 351.543,156.233 349.467,151.733 347.993 C 138.711 343.727,138.020 343.924,132.414 353.516 C 130.405 356.953,128.675 359.855,128.570 359.964 C 128.192 360.356,97.269 342.105,97.398 341.567 C 97.471 341.264,99.138 338.203,101.103 334.766 C 106.435 325.438,106.918 326.543,90.188 309.813 C 73.457 293.082,74.562 293.565,65.234 298.897 C 61.797 300.862,58.736 302.529,58.433 302.602 C 57.895 302.731,39.644 271.808,40.036 271.430 C 40.145 271.325,43.047 269.595,46.484 267.586 C 56.076 261.980,56.273 261.289,52.007 248.267 C 50.533 243.767,48.457 235.965,47.394 230.929 C 44.801 218.644,44.919 218.750,33.863 218.750 L 25.000 218.750 25.000 200.000 L 25.000 181.250 33.863 181.250 C 44.919 181.250,44.801 181.356,47.394 169.071 C 48.457 164.035,50.533 156.233,52.007 151.733 C 56.273 138.711,56.076 138.020,46.484 132.414 C 43.047 130.405,40.145 128.675,40.036 128.570 C 39.644 128.192,57.895 97.269,58.433 97.398 C 58.736 97.471,61.797 99.138,65.234 101.103 C 74.562 106.435,73.457 106.918,90.187 90.187 C 106.918 73.457,106.435 74.562,101.103 65.234 C 99.138 61.797,97.471 58.736,97.398 58.433 C 97.269 57.895,128.192 39.644,128.570 40.036 C 128.675 40.145,130.405 43.047,132.414 46.484 C 138.020 56.076,138.711 56.273,151.733 52.007 C 156.233 50.533,164.035 48.457,169.071 47.394 C 181.356 44.801,181.250 44.919,181.250 33.863 L 181.250 25.000 187.500 25.000 L 193.750 25.000 193.750 50.000 M291.797 26.458 C 288.448 27.983,283.307 33.149,282.449 35.851 C 281.950 37.425,281.431 37.500,270.990 37.500 C 257.111 37.500,258.902 35.954,248.451 56.964 L 239.480 75.000 229.115 75.000 L 218.750 75.000 218.750 81.250 L 218.750 87.500 232.473 87.500 C 240.021 87.500,246.789 87.179,247.512 86.786 C 248.236 86.393,252.865 77.955,257.799 68.036 L 266.770 50.000 274.348 50.000 C 281.372 50.000,281.964 50.121,282.449 51.649 C 285.949 62.675,304.115 66.179,313.181 57.578 C 328.497 43.047,311.066 17.682,291.797 26.458 M303.906 39.844 C 307.288 43.225,304.790 49.219,300.000 49.219 C 296.993 49.219,294.531 46.757,294.531 43.750 C 294.531 40.743,296.993 38.281,300.000 38.281 C 301.302 38.281,303.038 38.976,303.906 39.844 M348.767 82.358 C 345.374 83.836,341.188 87.692,339.426 90.964 L 337.926 93.750 323.800 93.750 C 307.273 93.750,309.077 92.907,301.639 104.102 L 296.059 112.500 288.654 112.500 L 281.250 112.500 281.250 118.750 L 281.250 125.000 292.038 125.000 C 304.766 125.000,303.532 125.679,310.861 114.648 L 316.441 106.250 327.166 106.292 L 337.891 106.335 340.234 109.982 C 350.658 126.203,374.966 119.216,374.966 100.000 C 374.966 86.351,361.077 76.998,348.767 82.358 M360.156 96.094 C 361.024 96.962,361.719 98.698,361.719 100.000 C 361.719 101.302,361.024 103.038,360.156 103.906 C 359.288 104.774,357.552 105.469,356.250 105.469 C 354.948 105.469,353.212 104.774,352.344 103.906 C 348.962 100.525,351.460 94.531,356.250 94.531 C 357.552 94.531,359.288 95.226,360.156 96.094 M181.716 101.255 C 102.731 115.519,72.331 213.768,129.281 270.719 C 192.441 333.878,300.000 289.323,300.000 200.000 C 300.000 137.195,243.569 90.085,181.716 101.255 M209.492 113.604 C 220.988 114.456,236.158 119.884,246.875 126.980 L 252.734 130.859 239.974 131.250 C 224.599 131.721,226.219 130.279,221.966 147.275 C 217.467 165.252,216.967 162.982,228.929 178.937 C 241.695 195.965,241.085 195.626,252.191 191.849 L 257.780 189.948 258.529 192.825 C 258.940 194.408,259.804 197.765,260.447 200.286 L 261.618 204.869 255.809 213.562 C 247.356 226.213,247.240 225.605,260.667 239.156 L 271.335 249.922 266.759 255.516 C 254.521 270.473,234.073 282.515,215.786 285.533 L 212.432 286.086 212.661 280.021 L 212.891 273.956 224.139 271.085 C 238.307 267.469,237.500 268.573,237.500 252.811 L 237.500 240.296 226.727 229.523 C 212.266 215.062,214.198 215.025,195.353 230.131 L 181.155 241.512 170.127 233.256 C 156.644 223.161,158.496 223.322,137.275 230.413 L 121.077 235.827 120.002 233.734 C 118.536 230.879,115.144 219.888,114.473 215.820 L 113.925 212.500 130.400 212.500 C 149.989 212.500,148.659 213.156,152.434 201.638 L 155.020 193.750 166.423 193.750 C 180.384 193.750,178.177 195.456,190.182 175.391 C 203.721 152.763,203.858 153.790,186.129 145.002 L 173.682 138.832 169.223 129.873 C 166.770 124.946,164.876 120.801,165.015 120.662 C 168.351 117.326,193.027 112.214,201.953 113.010 C 203.242 113.125,206.634 113.392,209.492 113.604 M158.402 137.970 L 163.672 148.596 173.961 153.790 L 184.250 158.984 177.567 170.117 L 170.884 181.250 158.879 181.250 C 144.421 181.250,144.992 180.897,141.316 192.112 L 138.730 200.000 125.899 200.000 L 113.068 200.000 113.472 192.773 C 114.714 170.529,127.115 147.169,145.485 132.471 C 153.497 126.061,152.229 125.521,158.402 137.970 M270.323 149.023 C 287.472 172.160,291.516 204.222,280.769 231.844 L 278.563 237.516 271.768 230.753 L 264.974 223.990 269.987 216.493 C 276.048 207.428,276.014 207.927,271.746 190.870 C 267.352 173.314,266.492 172.693,252.921 177.281 L 246.173 179.562 239.191 170.229 L 232.208 160.896 234.102 153.300 C 235.144 149.122,236.148 145.264,236.333 144.727 C 236.586 143.991,240.345 143.750,251.542 143.750 L 266.414 143.750 270.323 149.023 M361.267 182.358 C 357.874 183.836,353.688 187.692,351.926 190.964 L 350.426 193.750 331.463 193.750 L 312.500 193.750 312.500 200.000 L 312.500 206.250 331.445 206.292 L 350.391 206.335 352.734 209.982 C 363.158 226.203,387.466 219.216,387.466 200.000 C 387.466 186.351,373.577 176.998,361.267 182.358 M372.656 196.094 C 373.524 196.962,374.219 198.698,374.219 200.000 C 374.219 201.302,373.524 203.038,372.656 203.906 C 371.788 204.774,370.052 205.469,368.750 205.469 C 367.448 205.469,365.712 204.774,364.844 203.906 C 363.976 203.038,363.281 201.302,363.281 200.000 C 363.281 198.698,363.976 196.962,364.844 196.094 C 365.712 195.226,367.448 194.531,368.750 194.531 C 370.052 194.531,371.788 195.226,372.656 196.094 M218.613 240.878 L 225.082 247.380 224.846 252.338 L 224.609 257.295 213.361 260.165 C 199.362 263.737,200.000 262.956,200.000 276.535 L 200.000 287.147 192.773 286.614 C 169.044 284.863,143.307 270.472,129.943 251.481 L 127.464 247.959 141.320 243.388 L 155.176 238.817 166.774 247.534 C 182.299 259.202,180.338 259.340,197.755 245.342 C 205.220 239.342,211.512 234.420,211.736 234.404 C 211.960 234.388,215.055 237.301,218.613 240.878 M287.500 274.971 L 287.500 281.191 294.609 281.416 L 301.718 281.641 307.502 296.094 C 314.328 313.154,313.669 312.488,323.782 312.542 L 331.641 312.585 333.984 316.232 C 344.408 332.453,368.716 325.466,368.716 306.250 C 368.716 287.021,344.358 280.038,333.984 296.293 L 331.641 299.966 327.460 299.788 L 323.279 299.609 317.497 285.156 C 310.498 267.661,311.774 268.750,298.288 268.750 L 287.500 268.750 287.500 274.971 M353.906 302.344 C 354.774 303.212,355.469 304.948,355.469 306.250 C 355.469 307.552,354.774 309.288,353.906 310.156 C 353.038 311.024,351.302 311.719,350.000 311.719 C 348.698 311.719,346.962 311.024,346.094 310.156 C 345.226 309.288,344.531 307.552,344.531 306.250 C 344.531 304.948,345.226 303.212,346.094 302.344 C 346.962 301.476,348.698 300.781,350.000 300.781 C 351.302 300.781,353.038 301.476,353.906 302.344 M218.750 318.750 L 218.750 325.000 231.836 325.004 L 244.922 325.007 250.733 345.463 C 257.870 370.589,256.301 368.738,270.508 368.792 L 281.641 368.835 283.984 372.482 C 294.408 388.703,318.716 381.716,318.716 362.500 C 318.716 343.273,294.368 336.290,283.984 352.538 L 281.641 356.206 274.609 356.033 L 267.578 355.859 261.620 335.216 C 257.581 321.223,255.205 314.239,254.244 313.537 C 253.169 312.750,248.712 312.500,235.788 312.500 L 218.750 312.500 218.750 318.750 M303.906 358.594 C 304.774 359.462,305.469 361.198,305.469 362.500 C 305.469 363.802,304.774 365.538,303.906 366.406 C 303.038 367.274,301.302 367.969,300.000 367.969 C 298.698 367.969,296.962 367.274,296.094 366.406 C 295.226 365.538,294.531 363.802,294.531 362.500 C 294.531 361.198,295.226 359.462,296.094 358.594 C 296.962 357.726,298.698 357.031,300.000 357.031 C 301.302 357.031,303.038 357.726,303.906 358.594 " stroke="none" fill="#E03C28" fill-rule="evenodd"></path></g></svg>