<svg id="svg" xmlns="http://www.w3.org/2000/svg" xmlns:xlink="http://www.w3.org/1999/xlink" width="400" height="400" viewBox="0, 0, 400,400"><g id="svgg"><path id="path0" d="M59.621 6.203 C 11.733 13.833,-10.330 68.428,18.804 107.207 C 38.140 132.943,76.795 139.106,103.994 120.789 L 108.186 117.966 122.825 132.591 C 136.750 146.501,137.407 147.293,136.289 148.803 C 123.048 166.676,119.227 178.070,119.176 199.827 L 119.141 214.889 116.016 215.711 C 114.297 216.164,102.533 219.318,89.874 222.720 C 64.132 229.639,65.123 229.455,64.478 227.421 C 63.647 224.804,56.435 218.174,52.125 216.065 C 24.782 202.688,-3.626 230.902,9.720 258.180 C 23.062 285.450,66.426 277.599,68.578 247.523 C 68.935 242.532,69.102 242.129,71.004 241.652 C 72.128 241.370,84.297 238.105,98.047 234.395 L 123.047 227.651 125.089 232.380 C 130.857 245.737,143.203 260.687,154.226 267.661 L 157.657 269.831 151.289 282.609 C 145.706 293.812,144.729 295.326,143.359 294.899 C 129.833 290.679,110.459 295.710,100.087 306.136 C 72.059 334.311,91.640 381.647,131.288 381.563 C 170.391 381.480,189.610 335.287,162.441 306.686 L 156.957 300.912 163.230 288.384 L 169.503 275.856 173.892 277.366 C 198.041 285.674,228.145 280.944,248.512 265.641 L 252.708 262.488 267.352 277.117 C 281.209 290.960,281.935 291.832,280.852 293.334 C 250.518 335.446,279.619 393.709,331.004 393.745 C 378.227 393.777,408.200 345.199,387.156 302.734 C 370.561 269.246,326.509 258.135,295.313 279.569 L 291.797 281.985 277.166 267.385 C 263.249 253.497,262.593 252.708,263.711 251.197 C 273.792 237.590,279.672 223.294,280.981 209.211 L 281.469 203.969 284.680 203.584 C 287.891 203.198,333.827 201.537,340.807 201.554 C 344.438 201.562,344.540 201.631,346.411 205.323 C 358.271 228.729,393.379 219.781,393.352 193.359 C 393.325 166.383,354.793 158.705,345.448 183.814 L 343.931 187.891 339.348 188.121 C 327.417 188.721,281.613 190.366,281.402 190.203 C 281.271 190.101,280.516 186.858,279.725 182.996 C 275.926 164.452,264.429 146.535,248.238 133.926 L 245.304 131.641 250.972 121.286 C 255.224 113.520,256.934 111.054,257.813 111.421 C 260.888 112.709,274.794 112.671,279.352 111.363 C 317.805 100.327,314.162 43.565,274.609 37.469 C 239.205 32.013,216.806 74.653,241.264 100.946 L 244.688 104.626 239.013 115.061 L 233.338 125.496 228.759 123.647 C 203.628 113.496,172.898 118.353,148.803 136.283 C 147.291 137.408,146.513 136.762,132.591 122.825 L 117.966 108.186 120.789 103.994 C 150.997 59.138,112.606 -2.240,59.621 6.203 M82.809 21.255 C 115.638 31.295,128.758 71.048,108.266 98.394 L 106.250 101.085 106.250 97.169 C 106.250 86.976,99.000 74.168,90.128 68.684 L 87.512 67.067 89.444 64.535 C 101.676 48.498,89.315 24.712,68.750 24.712 C 48.617 24.712,36.150 48.055,47.740 64.054 L 49.943 67.095 47.349 68.698 C 38.661 74.068,31.307 86.890,31.218 96.821 L 31.186 100.391 28.979 97.811 C 27.765 96.392,25.694 93.022,24.378 90.322 C 5.667 51.948,42.153 8.820,82.809 21.255 M74.812 39.840 C 84.974 46.036,80.629 61.713,68.750 61.713 C 56.871 61.713,52.526 46.036,62.688 39.840 C 66.031 37.801,71.469 37.801,74.812 39.840 M279.514 53.162 C 302.412 64.604,294.439 99.229,268.887 99.310 C 249.176 99.372,237.643 77.665,248.643 61.205 C 255.230 51.349,268.807 47.812,279.514 53.162 M78.516 77.621 C 83.867 80.120,87.175 83.083,89.882 87.803 C 93.527 94.158,94.979 93.750,68.750 93.750 C 42.521 93.750,43.973 94.158,47.618 87.803 C 53.723 77.159,67.679 72.560,78.516 77.621 M97.926 108.576 C 82.824 119.682,62.847 121.148,45.978 112.387 C 33.709 106.015,32.820 106.250,69.173 106.250 L 101.089 106.250 97.926 108.576 M217.188 133.932 C 257.891 144.427,279.578 190.592,261.714 228.713 C 237.181 281.066,162.837 281.106,138.316 228.779 C 114.042 176.980,161.730 119.634,217.188 133.932 M193.750 143.827 C 167.876 148.880,159.377 185.492,180.711 200.000 C 184.374 202.491,184.453 202.287,178.656 205.285 C 165.777 211.943,156.250 227.278,156.250 241.349 C 156.250 250.749,152.461 250.000,200.000 250.000 C 247.539 250.000,243.750 250.749,243.750 241.349 C 243.750 227.278,234.223 211.943,221.344 205.285 C 215.547 202.287,215.626 202.491,219.289 200.000 C 246.020 181.822,225.892 137.549,193.750 143.827 M206.861 158.243 C 224.885 165.760,219.509 192.969,200.000 192.969 C 180.944 192.969,175.162 167.551,192.173 158.554 C 195.612 156.735,202.877 156.581,206.861 158.243 M374.812 183.590 C 384.974 189.786,380.629 205.463,368.750 205.463 C 356.871 205.463,352.526 189.786,362.688 183.590 C 366.031 181.551,371.469 181.551,374.812 183.590 M209.289 214.507 C 217.247 217.054,224.304 223.235,227.783 230.707 C 231.228 238.108,233.716 237.500,200.000 237.500 C 165.985 237.500,168.523 238.205,172.670 229.906 C 179.328 216.582,195.078 209.960,209.289 214.507 M44.361 226.993 C 56.310 231.977,59.271 247.906,49.900 256.796 C 38.495 267.617,19.614 259.607,19.548 243.920 C 19.495 231.084,32.651 222.109,44.361 226.993 M345.245 283.728 C 374.997 292.786,389.236 326.451,374.939 353.933 C 370.521 362.423,368.750 363.945,368.750 359.247 C 368.750 349.479,361.330 336.562,352.628 331.184 L 350.012 329.567 351.944 327.035 C 364.176 310.998,351.815 287.212,331.250 287.212 C 311.117 287.212,298.650 310.555,310.240 326.554 L 312.443 329.595 309.849 331.198 C 301.000 336.668,293.750 349.488,293.750 359.669 L 293.750 363.585 291.734 360.894 C 263.467 323.173,300.308 270.046,345.245 283.728 M337.312 302.340 C 347.474 308.536,343.129 324.213,331.250 324.213 C 324.584 324.213,319.537 319.166,319.537 312.500 C 319.537 305.834,324.584 300.787,331.250 300.787 C 333.383 300.787,335.767 301.398,337.312 302.340 M143.960 309.566 C 171.143 322.107,165.444 363.465,135.938 367.780 C 100.021 373.033,86.681 322.968,120.228 308.826 C 126.476 306.192,137.383 306.532,143.960 309.566 M341.016 340.121 C 346.367 342.620,349.675 345.583,352.382 350.303 C 356.027 356.658,357.479 356.250,331.250 356.250 C 305.021 356.250,306.473 356.658,310.118 350.303 C 314.628 342.439,321.920 338.297,331.250 338.297 C 335.754 338.297,338.013 338.719,341.016 340.121 M360.426 371.076 C 345.324 382.182,325.347 383.648,308.478 374.887 C 296.209 368.515,295.320 368.750,331.673 368.750 L 363.589 368.750 360.426 371.076 " stroke="none" fill="#e03c28" fill-rule="evenodd"></path></g></svg>