<?xml version="1.0" encoding="utf-8"?>
<!-- Generator: Adobe Illustrator 23.0.1, SVG Export Plug-In . SVG Version: 6.00 Build 0)  -->
<svg version="1.1" id="Capa_1" xmlns="http://www.w3.org/2000/svg" xmlns:xlink="http://www.w3.org/1999/xlink" x="0px" y="0px"
	 viewBox="0 0 496 496" style="enable-background:new 0 0 496 496;" xml:space="preserve">
<style type="text/css">
	.st0{fill:#E03C28;}
</style>
<path class="st0" d="M480,401.5V344c0-30.9-25.1-56-56-56h-86.8c4.3-12.5,6.8-25.7,6.8-40s-2.5-27.5-6.8-40H424
	c30.9,0,56-25.1,56-56V94.5c9.3-3.3,16-12.1,16-22.5c0-13.2-10.8-24-24-24s-24,10.8-24,24c0,10.4,6.7,19.2,16,22.5V152
	c0,22.1-17.9,40-40,40h-93.4c-11.8-24.1-30.2-44.9-49.9-64H368c22.1,0,40-17.9,40-40V46.5c9.3-3.3,16-12.1,16-22.5
	c0-13.2-10.8-24-24-24s-24,10.8-24,24c0,10.4,6.7,19.2,16,22.5V88c0,13.2-10.8,24-24,24H264v0.5c-1.3-1.2-2.7-2.4-4-3.6
	C295.6,77.1,328,46.6,328,8V0h-16v8c0,5.4-1,10.8-2.6,16H186.6C185,18.8,184,13.4,184,8V0h-16v8c0,38.6,32.4,69.1,68,100.8
	c-1.3,1.2-2.7,2.4-4,3.6V112H128c-13.2,0-24-10.8-24-24V46.5c9.3-3.3,16-12.1,16-22.5c0-13.2-10.8-24-24-24S72,10.8,72,24
	c0,10.4,6.7,19.2,16,22.5V88c0,22.1,17.9,40,40,40h87.3c-19.7,19.1-38.1,39.9-49.9,64H72c-22.1,0-40-17.9-40-40V94.5
	c9.3-3.3,16-12.1,16-22.5c0-13.2-10.8-24-24-24S0,58.8,0,72c0,10.4,6.7,19.2,16,22.5V152c0,30.9,25.1,56,56,56h86.8
	c-4.3,12.5-6.8,25.7-6.8,40c0,14.3,2.5,27.5,6.8,40H72c-30.9,0-56,25.1-56,56v57.5C6.7,404.8,0,413.6,0,424c0,13.2,10.8,24,24,24
	s24-10.8,24-24c0-10.4-6.7-19.2-16-22.5V344c0-22.1,17.9-40,40-40h93.4c11.8,24.1,30.2,44.9,49.9,64H128c-22.1,0-40,17.9-40,40v41.5
	c-9.3,3.3-16,12.1-16,22.5c0,13.2,10.8,24,24,24s24-10.8,24-24c0-10.4-6.7-19.2-16-22.5V408c0-13.2,10.8-24,24-24h104v-0.5
	c1.3,1.2,2.7,2.4,4,3.6c-35.6,31.8-68,62.3-68,100.8v8h16v-8c0-5.4,1-10.8,2.6-16H208v-16h-14.2c3.2-5.4,7-10.7,11.4-16h85.6
	c4.4,5.3,8.2,10.6,11.4,16H224v16h85.4c1.6,5.2,2.6,10.6,2.6,16v8h16v-8c0-38.6-32.4-69.1-68-100.8c1.3-1.2,2.7-2.4,4-3.6v0.5h104
	c13.2,0,24,10.8,24,24v41.5c-9.3,3.3-16,12.1-16,22.5c0,13.2,10.8,24,24,24s24-10.8,24-24c0-10.4-6.7-19.2-16-22.5V408
	c0-22.1-17.9-40-40-40h-87.3c19.7-19.1,38.1-39.9,49.9-64H424c22.1,0,40,17.9,40,40v57.5c-9.3,3.3-16,12.1-16,22.5
	c0,13.2,10.8,24,24,24s24-10.8,24-24C496,413.6,489.3,404.8,480,401.5z M472,64c4.4,0,8,3.6,8,8s-3.6,8-8,8s-8-3.6-8-8
	S467.6,64,472,64z M400,16c4.4,0,8,3.6,8,8s-3.6,8-8,8s-8-3.6-8-8S395.6,16,400,16z M96,16c4.4,0,8,3.6,8,8s-3.6,8-8,8s-8-3.6-8-8
	S91.6,16,96,16z M24,64c4.4,0,8,3.6,8,8s-3.6,8-8,8s-8-3.6-8-8S19.6,64,24,64z M24,432c-4.4,0-8-3.6-8-8s3.6-8,8-8s8,3.6,8,8
	S28.4,432,24,432z M96,480c-4.4,0-8-3.6-8-8s3.6-8,8-8s8,3.6,8,8S100.4,480,96,480z M400,480c-4.4,0-8-3.6-8-8s3.6-8,8-8s8,3.6,8,8
	S404.4,480,400,480z M206.7,336c-4.6-5.2-8.9-10.5-12.9-16h108.5c-4,5.5-8.3,10.8-12.9,16H206.7z M274.2,352
	c-8.4,8.3-17.3,16.4-26.2,24.4c-8.9-8-17.8-16.1-26.2-24.4H274.2z M183.4,304c-2.9-5.2-5.5-10.5-7.7-16h144.6
	c-2.2,5.5-4.8,10.8-7.7,16H183.4z M193.8,176c4-5.5,8.3-10.8,12.9-16h82.7c4.6,5.2,8.9,10.5,12.9,16H288v16h24.6
	c2.9,5.2,5.5,10.5,7.7,16H175.7c2.2-5.5,4.8-10.8,7.7-16H272v-16H193.8z M221.8,144c8.4-8.3,17.3-16.4,26.2-24.4
	c8.9,8,17.8,16.1,26.2,24.4H221.8z M170.8,224h154.4c1.2,5.2,2,10.5,2.4,16H168.4C168.8,234.5,169.6,229.2,170.8,224z M168.4,256
	h159.2c-0.4,5.5-1.2,10.8-2.4,16H170.8C169.6,266.8,168.8,261.5,168.4,256z M302.2,40c-3.2,5.4-7,10.7-11.4,16h-85.6
	c-4.4-5.3-8.2-10.6-11.4-16H302.2z M219.9,72h56.2c-8.6,8.7-18.3,17.3-28.1,26.1C238.2,89.3,228.6,80.7,219.9,72z M276.1,424h-56.2
	c8.6-8.7,18.3-17.3,28.1-26.1C257.8,406.7,267.4,415.3,276.1,424z M472,432c-4.4,0-8-3.6-8-8s3.6-8,8-8s8,3.6,8,8S476.4,432,472,432
	z"/>
</svg>
