<?xml version="1.0" encoding="utf-8"?>
<!-- Generator: Adobe Illustrator 22.0.1, SVG Export Plug-In . SVG Version: 6.00 Build 0)  -->
<svg version="1.1" id="_x31__x2C_5" xmlns="http://www.w3.org/2000/svg" xmlns:xlink="http://www.w3.org/1999/xlink" x="0px"
	 y="0px" viewBox="0 0 512 512" style="enable-background:new 0 0 512 512;" xml:space="preserve">
<style type="text/css">
	.st0{fill:#E03C28;}
</style>
<path class="st0" d="M512.3863,130.1711c0-16.9467-13.7867-30.7334-30.7334-30.7334h-26.9568c-4.8279,0-8.7565,3.9281-8.7565,8.7565
	c0,4.8285,3.9286,8.7565,8.7565,8.7565h26.9568c7.2897,0,13.2203,5.9306,13.2203,13.2203v284.33
	c0,7.2898-5.9306,13.2203-13.2203,13.2203H31.1202c-7.2902,0-13.2208-5.9306-13.2208-13.2203v-284.33
	c0-7.2897,5.9306-13.2203,13.2203-13.2203h26.9567c4.8285,0,8.7565-3.9281,8.7565-8.7565c0-4.8285-3.9281-8.7565-8.7565-8.7565
	H31.1202c-16.9467,0-30.7339,13.7872-30.7339,30.7339v284.3295c0,16.9467,13.7872,30.7334,30.7339,30.7334l450.5328-0.0001
	c16.9467,0,30.7335-13.7867,30.7335-30.7334v-284.33L512.3863,130.1711L512.3863,130.1711z"/>
<g>
	<g>
		<path class="st0" d="M51.9819,295.7808l14.9542,67.2938c0.7218,3.2555,3.5589,5.5302,6.8989,5.5302h112.1715
			c3.1947,0,5.999-2.1529,6.8189-5.2344l29.9135-112.1741c0.4889-1.828,0.2349-3.7364-0.7138-5.3742
			c-0.9462-1.6318-2.4668-2.7953-4.2822-3.2767c-1.8244-0.495-3.7203-0.2505-5.3486,0.6876
			c-1.6474,0.9492-2.8234,2.4799-3.3099,4.3099l-10.5578,39.6207H58.8788c-2.1529,0-4.165,0.9638-5.5206,2.6444
			C52.0171,291.476,51.5151,293.654,51.9819,295.7808z M194.7555,301.3009l-14.1766,53.166H79.5111l-11.8204-53.166
			L194.7555,301.3009L194.7555,301.3009z"/>
		<circle class="st0" cx="112.6922" cy="402.6651" r="10.8078"/>
		<circle class="st0" cx="162.1052" cy="402.6651" r="10.8078"/>
	</g>
	<g>
		<path class="st0" d="M448.5963,393.839h-0.9365v-88.3192c8.3559-5.9207,13.3015-15.4169,13.3015-25.6829
			c0-0.9924-0.2603-1.9725-0.7524-2.8353l-24.6895-43.2056c-2.1962-3.8429-6.3112-6.2303-10.7362-6.2303H279.532
			c-4.4261,0-8.5399,2.3874-10.7372,6.2308l-24.689,43.2061c-0.4916,0.8617-0.7519,1.8419-0.7519,2.8343
			c0,10.2659,4.9456,19.7622,13.3015,25.6829v88.3192h-0.9365c-3.151,0-5.7143,2.5633-5.7143,5.7143s2.5633,5.7143,5.7143,5.7143
			h192.8774c3.151,0,5.7143-2.5633,5.7143-5.7143S451.7473,393.839,448.5963,393.839z M419.6028,388.6412v5.1988h-28.476v-5.1988
			H419.6028z M419.6028,325.4568v51.7557h-28.476v-51.7557H419.6028z M425.3181,314.0282h-39.9056
			c-3.151,0-5.7143,2.5633-5.7143,5.7143v74.0964H268.084v-83.2516c2.2166,0.4891,4.4779,0.7361,6.7565,0.7361
			c10.3996,0,19.9208-5.0392,25.7724-13.4022c5.8516,8.363,15.3727,13.4022,25.7724,13.4022s19.9208-5.0392,25.7724-13.4022
			c5.8516,8.363,15.3727,13.4022,25.7724,13.4022s19.9208-5.0392,25.7724-13.4022c5.8516,8.363,15.3727,13.4022,25.7724,13.4022
			c2.2786,0,4.5399-0.2471,6.7565-0.7361v83.2526h-5.1988v-74.0975C431.0323,316.5916,428.469,314.0282,425.3181,314.0282z
			 M307.1619,285.5512h38.4465c-2.4911,8.3554-10.2847,14.3438-19.2233,14.3438S309.653,293.9066,307.1619,285.5512z
			 M358.7066,285.5512h38.4466c-2.4911,8.3554-10.2848,14.3438-19.2233,14.3438S361.1978,293.9066,358.7066,285.5512z
			 M410.2514,285.5512h18.3925c3.151,0,5.7143-2.5633,5.7143-5.7143s-2.5633-5.7143-5.7143-5.7143H275.6721
			c-3.151,0-5.7143,2.5633-5.7143,5.7143s2.5633,5.7143,5.7143,5.7143h18.3916c-2.4911,8.3554-10.2847,14.3438-19.2233,14.3438
			c-8.9416,0-16.7362-5.9883-19.2274-14.3438h6.7555c3.151,0,5.7143-2.5633,5.7143-5.7143s-2.5633-5.7143-5.7143-5.7143h-3.454
			l19.8029-34.6555c0.1667-0.2913,0.4789-0.4728,0.8145-0.4728h145.2513c0.3305,0,0.6497,0.1851,0.8134,0.4718l19.8039,34.6565
			h-3.4561c-3.151,0-5.7143,2.5633-5.7143,5.7143s2.5633,5.7143,5.7143,5.7143h6.7575
			c-2.4911,8.3554-10.2858,14.3438-19.2274,14.3438C420.5361,299.8949,412.7426,293.9066,410.2514,285.5512z"/>
		<path class="st0" d="M368.785,314.0282h-89.7879c-3.151,0-5.7143,2.5633-5.7143,5.7143v63.1843
			c0,3.151,2.5633,5.7143,5.7143,5.7143h89.7879c3.151,0,5.7143-2.5633,5.7143-5.7143v-63.1843
			C374.4993,316.5916,371.936,314.0282,368.785,314.0282z M363.0706,325.4568v51.7557h-78.3593v-51.7557H363.0706z"/>
	</g>
	<path class="st0" d="M352.1575,179.5853c26.4428,0,47.9519-21.5091,47.9519-47.9519s-21.5091-47.9519-47.9519-47.9519
		s-47.9519,21.5091-47.9519,47.9519S325.7147,179.5853,352.1575,179.5853z M389.4534,131.6334
		c0,18.7492-13.9274,34.2696-31.968,36.8697V157.293c6.1858-2.2058,10.656-8.0666,10.656-15.0036
		c0-8.8125-7.1715-15.984-15.984-15.984c-2.9411,0-5.328-2.3869-5.328-5.328c0-2.941,2.3869-5.328,5.328-5.328h15.984v-10.656
		h-10.656V94.7637C375.5261,97.3638,389.4534,112.8842,389.4534,131.6334z M346.8295,94.7637v11.2101
		c-6.1858,2.2058-10.656,8.0666-10.656,15.0036c0,8.8125,7.1715,15.984,15.984,15.984c2.941,0,5.328,2.3869,5.328,5.328
		c0,2.941-2.3869,5.328-5.328,5.328h-15.984v10.656h10.656v10.2297c-18.0406-2.6001-31.968-18.1205-31.968-36.8697
		S328.7889,97.3638,346.8295,94.7637z"/>
	<g>
		<g>
			<path class="st0" d="M158.9393,126.8491c12.7632-11.239,13.9979-30.6962,2.7589-43.4594s-30.6962-13.9979-43.4594-2.7589
				s-13.9979,30.6962-2.7589,43.4594c0.8606,0.9769,1.7821,1.8983,2.7589,2.7589c-17.5844,7.9843-28.8872,25.5009-28.9165,44.8135
				v12.4988c-0.0008,3.4002,2.7551,6.1576,6.1553,6.1583c0.0008,0,0.0023,0,0.0031,0h86.2167
				c3.4002,0.0008,6.1576-2.7551,6.1583-6.1553c0-0.0008,0-0.0023,0-0.0031v-12.4988
				C187.8265,152.35,176.5237,134.8334,158.9393,126.8491z M138.5891,85.4458c10.2036,0,18.475,8.2714,18.475,18.475
				s-8.2714,18.475-18.475,18.475c-10.199-0.0108-18.4642-8.276-18.475-18.475C120.1141,93.7172,128.3855,85.4458,138.5891,85.4458z
				 M175.5391,178.003H101.639v-6.3404c0-20.4072,16.5428-36.95,36.95-36.95s36.95,16.5428,36.95,36.95v6.3404H175.5391z"/>
		</g>
	</g>
	<path class="st0" d="M273.4953,147.3189h-60.283c-4.128,0-7.4743-3.3464-7.4743-7.4743v-0.0001
		c0-4.128,3.3464-7.4743,7.4743-7.4743l60.283,0.0001c4.128,0,7.4744,3.3464,7.4743,7.4744v0
		C280.9696,143.9725,277.6233,147.3189,273.4953,147.3189z"/>
	<path class="st0" d="M131.1147,252.15v-39.6333c0-4.128,3.3464-7.4743,7.4743-7.4743h0.0001c4.128,0,7.4743,3.3464,7.4743,7.4744
		l-0.0001,39.6333c0,4.128-3.3464,7.4743-7.4743,7.4743h0C134.4611,259.6244,131.1147,256.278,131.1147,252.15z"/>
	<path class="st0" d="M344.6833,214.859v-19.6333c0-4.128,3.3464-7.4743,7.4744-7.4743h0.0001c4.128,0,7.4744,3.3464,7.4744,7.4743
		l-0.0001,19.6333c0,4.128-3.3464,7.4743-7.4743,7.4743h0C348.0296,222.3334,344.6833,218.987,344.6833,214.859z"/>
</g>
</svg>
