<?xml version="1.0" encoding="utf-8"?>
<!-- Generator: Adobe Illustrator 22.0.1, SVG Export Plug-In . SVG Version: 6.00 Build 0)  -->
<svg version="1.1" id="Layer_1" xmlns="http://www.w3.org/2000/svg" xmlns:xlink="http://www.w3.org/1999/xlink" x="0px" y="0px"
	 viewBox="0 0 512 512" style="enable-background:new 0 0 512 512;" xml:space="preserve">
<style type="text/css">
	.st0{fill:#E03C28;}
</style>
<g>
	<path class="st0" d="M231.2258,416.946h49.5484c4.5608,0,8.2581,3.6973,8.2581,8.2581v0c0,4.5608-3.6973,8.2581-8.2581,8.2581
		h-49.5484c-4.5608,0-8.2581-3.6973-8.2581-8.2581v0C222.9677,420.6432,226.665,416.946,231.2258,416.946z"/>
	<path class="st0" d="M57.8064,70.1073c-22.7661,0-41.2903,18.5242-41.2903,41.2903v272.5161H0v41.2903
		c0,22.7661,18.5242,41.2903,41.2903,41.2903h429.4194c22.7661,0,41.2903-18.5242,41.2903-41.2903v-41.2903h-16.5161V111.3976
		c0-22.7661-18.5242-41.2903-41.2903-41.2903H57.8064z M454.1935,86.6234c13.6573,0,24.7742,11.1169,24.7742,24.7742v272.5161
		H33.0323V111.3976c0-13.6573,11.1169-24.7742,24.7742-24.7742H454.1935z M495.4839,400.4298v24.7742
		c0,13.6573-11.1169,24.7742-24.7742,24.7742H41.2903c-13.6573,0-24.7742-11.1169-24.7742-24.7742v-24.7742"/>
	<path class="st0" d="M404.6452,301.3331c-5.0686,0-9.7863,1.5443-13.7177,4.1693l-28.8105-21.6008
		c0.7339-2.3387,1.2379-4.7742,1.2379-7.3427c0-13.6573-11.1169-24.7742-24.7742-24.7742s-24.7742,11.1169-24.7742,24.7742
		c0,2.8427,0.5766,5.5323,1.4597,8.0766l-46.25,37.004c-3.7903-2.3629-8.2258-3.7903-13.0161-3.7903
		c-5.5565,0-10.6371,1.9073-14.7742,5.0041l-35.6089-23.7419c0.496-1.9395,0.8347-3.9395,0.8347-6.0363
		c0-13.6573-11.1169-24.7742-24.7742-24.7742s-24.7742,11.1169-24.7742,24.7742c0,2.0968,0.3387,4.0968,0.8347,6.0363
		l-35.6089,23.7419c-4.1371-3.1049-9.2177-5.0041-14.7742-5.0041c-13.6573,0-24.7742,11.1169-24.7742,24.7742
		s11.1169,24.7742,24.7742,24.7742s24.7742-11.1169,24.7742-24.7742c0-2.0968-0.3387-4.0968-0.8347-6.0363l35.6089-23.7419
		c4.1371,3.1049,9.2177,5.004,14.7742,5.004c5.5565,0,10.6371-1.8992,14.7742-5.004l35.6089,23.7419
		c-0.496,1.9395-0.8347,3.9476-0.8347,6.0363c0,13.6573,11.1169,24.7742,24.7742,24.7742s24.7742-11.1169,24.7742-24.7742
		c0-2.8427-0.5766-5.5323-1.4597-8.0766l46.25-37.004c3.7903,2.3629,8.2258,3.7903,13.0161,3.7903
		c5.0685,0,9.7863-1.5444,13.7177-4.1694l28.8105,21.6008c-0.7339,2.3387-1.2379,4.7742-1.2379,7.3427
		c0,13.6573,11.1169,24.7742,24.7742,24.7742s24.7742-11.1169,24.7742-24.7742S418.3024,301.3331,404.6452,301.3331z
		 M107.3548,350.8814c-4.5484,0-8.2581-3.7097-8.2581-8.2581c0-4.5484,3.7097-8.2581,8.2581-8.2581
		c4.5484,0,8.2581,3.7097,8.2581,8.2581C115.6129,347.1718,111.9032,350.8814,107.3548,350.8814z M181.6774,301.3331
		c-4.5484,0-8.2581-3.7097-8.2581-8.2581c0-4.5484,3.7097-8.2581,8.2581-8.2581s8.2581,3.7097,8.2581,8.2581
		C189.9355,297.6234,186.2258,301.3331,181.6774,301.3331z M256,350.8814c-4.5484,0-8.2581-3.7097-8.2581-8.2581
		c0-4.5484,3.7097-8.2581,8.2581-8.2581c4.5484,0,8.2581,3.7097,8.2581,8.2581C264.2581,347.1718,260.5484,350.8814,256,350.8814z
		 M338.5807,284.8169c-4.5484,0-8.2581-3.7097-8.2581-8.2581c0-4.5484,3.7097-8.2581,8.2581-8.2581
		c4.5484,0,8.2581,3.7097,8.2581,8.2581C346.8387,281.1073,343.129,284.8169,338.5807,284.8169z M404.6452,334.3653
		c-4.5484,0-8.2581-3.7097-8.2581-8.2581c0-4.5484,3.7097-8.2581,8.2581-8.2581c4.5484,0,8.2581,3.7097,8.2581,8.2581
		C412.9032,330.6556,409.1935,334.3653,404.6452,334.3653z"/>
	<g>
		<path class="st0" d="M197.66,111.3976H65.531v115.6129H197.66V111.3976z M181.1439,210.4944H82.0471v-82.5806h99.0968V210.4944z"
			/>
		<path class="st0" d="M98.5632,144.4298h66.0645v16.5161H98.5632V144.4298z"/>
		<path class="st0" d="M98.5632,177.4621h66.0645v16.5161H98.5632V177.4621z"/>
	</g>
	<path class="st0" d="M358.8047,98.4839c-38.9951,0-70.7207,31.7251-70.7207,70.7202s31.7256,70.7202,70.7207,70.7202
		s70.7197-31.7251,70.7197-70.7202S397.7998,98.4839,358.8047,98.4839z M312.3984,140.231
		c9.9922-16.0112,27.4004-25.79,46.4063-25.79c11.4346,0,22.5996,3.6313,31.8828,10.3008l-33.958,33.9561L312.3984,140.231z
		 M305.5176,156.6387l46.125,19.2207l15.7949,47.377c-2.9238,0.4854-5.8135,0.7305-8.6328,0.7305
		c-30.1973,0-54.7637-24.5664-54.7637-54.7627C304.041,164.9771,304.5371,160.7671,305.5176,156.6387z M384.3252,217.6318
		l-15.3428-46.0254l34.2813-34.2822c6.6709,9.2783,10.3037,20.4429,10.3037,31.8799
		C413.5674,189.626,402.2236,208.1885,384.3252,217.6318z"/>
</g>
</svg>
